<svg width="29" height="29" viewBox="0 0 29 29" fill="none" xmlns="http://www.w3.org/2000/svg">
<path d="M10.2159 10.8758C10.2159 10.3308 10.6595 9.88721 11.2045 9.88721C11.7496 9.88721 12.1932 10.3308 12.1932 10.8758C12.1932 11.4209 11.7496 11.8645 11.2045 11.8645C10.6595 11.8645 10.2159 11.4209 10.2159 10.8758ZM17.7955 16.4781C17.2504 16.4781 16.8068 16.9217 16.8068 17.4668C16.8068 18.0118 17.2504 18.4554 17.7955 18.4554C18.3405 18.4554 18.7841 18.0118 18.7841 17.4668C18.7841 16.9217 18.3405 16.4781 17.7955 16.4781ZM26.7116 16.9586C26.6612 17.181 26.9492 17.761 27.1397 18.145C27.5072 18.8851 27.9237 19.7238 27.5661 20.4643C27.2036 21.2153 26.2789 21.4134 25.4627 21.5877C25.0497 21.6764 24.4259 21.8098 24.2911 21.9782C24.1544 22.1499 24.1623 22.7909 24.1675 23.215C24.1781 24.0461 24.1896 24.9886 23.5417 25.5063C22.8962 26.0218 21.982 25.8019 21.1759 25.6085C20.761 25.509 20.1356 25.3577 19.9342 25.4556C19.7437 25.5472 19.4765 26.1216 19.2995 26.5016C18.9459 27.2618 18.5452 28.1229 17.7259 28.3091C17.626 28.3319 17.5239 28.3434 17.4214 28.3434C16.7528 28.3434 16.1553 27.8547 15.575 27.3801C15.2204 27.0898 14.7343 26.6924 14.4997 26.6924C14.2654 26.6924 13.7793 27.0898 13.4247 27.3801C12.789 27.8998 12.068 28.4907 11.2741 28.3088C10.4548 28.1226 10.0538 27.2612 9.69984 26.5016C9.5232 26.1216 9.25561 25.5472 9.06547 25.4553C8.86378 25.3567 8.23765 25.5086 7.82341 25.6082C7.01701 25.8023 6.10351 26.0211 5.4576 25.506C4.80939 24.9883 4.82092 24.0455 4.8318 23.214C4.83707 22.7899 4.84498 22.1493 4.70855 21.9779C4.57376 21.8092 3.94993 21.6757 3.53701 21.5874C2.7204 21.4127 1.79569 21.2147 1.43319 20.4633C1.07597 19.7235 1.49284 18.8845 1.85995 18.1443C2.05076 17.7607 2.33878 17.1804 2.28836 16.9579C2.24289 16.7586 1.74659 16.3733 1.41836 16.1183C0.75367 15.6028 0 15.0176 0 14.1713C0 13.325 0.753671 12.7401 1.41869 12.224C1.74692 11.9693 2.24322 11.584 2.28869 11.3843C2.33911 11.1619 2.05109 10.5816 1.86061 10.1976C1.49317 9.45748 1.07663 8.61878 1.43418 7.8783C1.79668 7.12726 2.72139 6.92921 3.53767 6.75455C3.95059 6.66623 4.57442 6.53276 4.70888 6.36436C4.84597 6.19267 4.83806 5.55171 4.83278 5.12758C4.82224 4.29614 4.8107 3.35364 5.45859 2.83592C6.10417 2.32051 7.01833 2.53999 7.8244 2.73376C8.2393 2.83329 8.86477 2.98389 9.06612 2.887C9.2566 2.79506 9.52386 2.22099 9.70083 1.84069C10.0544 1.08076 10.4552 0.21966 11.2744 0.0334666C12.0673 -0.146465 12.7897 0.442103 13.425 0.962126C13.7799 1.25246 14.266 1.64989 14.5003 1.64989C14.7346 1.64989 15.2207 1.25246 15.5753 0.962455C16.2113 0.442103 16.932 -0.147783 17.7263 0.0334666C18.5452 0.21966 18.9462 1.08109 19.3002 1.84102C19.4771 2.22099 19.7444 2.79539 19.9349 2.88733C20.1369 2.98455 20.762 2.83361 21.1763 2.73409C21.9827 2.54032 22.8965 2.32084 23.5424 2.83625C24.1906 3.35397 24.1791 4.29647 24.1682 5.12824C24.1629 5.55236 24.155 6.19333 24.2915 6.36436C24.4262 6.53276 25.0501 6.66656 25.463 6.75488C26.2796 6.92954 27.2043 7.12726 27.5668 7.87863C27.924 8.61879 27.5072 9.45781 27.14 10.198C26.9492 10.5819 26.6612 11.1619 26.7116 11.3843C26.7571 11.584 27.2534 11.9693 27.5816 12.224C28.2463 12.7401 29 13.325 29 14.1713C29 15.0176 28.2463 15.6025 27.5813 16.1186C27.2531 16.3736 26.7568 16.7586 26.7116 16.9586ZM11.2045 13.1827C12.4763 13.1827 13.5114 12.1479 13.5114 10.8758C13.5114 9.6038 12.4763 8.56902 11.2045 8.56902C9.93283 8.56902 8.89773 9.6038 8.89773 10.8758C8.89773 12.1479 9.93283 13.1827 11.2045 13.1827ZM19.5796 10.0236C19.6426 9.96284 19.6928 9.89011 19.7273 9.8097C19.7619 9.72929 19.78 9.6428 19.7808 9.55529C19.7816 9.46777 19.7649 9.38099 19.7317 9.29999C19.6986 9.21899 19.6497 9.1454 19.5878 9.08351C19.5259 9.02163 19.4523 8.97269 19.3713 8.93955C19.2903 8.90641 19.2035 8.88973 19.116 8.89049C19.0285 8.89126 18.942 8.90944 18.8616 8.94398C18.7812 8.97852 18.7085 9.02873 18.6477 9.09168L9.42039 18.319C9.35744 18.3798 9.30723 18.4525 9.27268 18.5329C9.23814 18.6133 9.21996 18.6998 9.2192 18.7873C9.21844 18.8748 9.23511 18.9616 9.26825 19.0426C9.30139 19.1236 9.35033 19.1972 9.41222 19.2591C9.4741 19.321 9.54769 19.3699 9.62869 19.403C9.70969 19.4362 9.79648 19.4529 9.88399 19.4521C9.97151 19.4513 10.058 19.4332 10.1384 19.3986C10.2188 19.3641 10.2915 19.3139 10.3523 19.2509L19.5796 10.0236ZM20.1023 17.4668C20.1023 16.195 19.0672 15.1599 17.7955 15.1599C16.5237 15.1599 15.4886 16.195 15.4886 17.4668C15.4886 18.7385 16.5237 19.7736 17.7955 19.7736C19.0672 19.7736 20.1023 18.7385 20.1023 17.4668Z" fill="url(#paint0_linear_404_4998)"/>
<defs>
<linearGradient id="paint0_linear_404_4998" x1="0" y1="28.3434" x2="29" y2="28.3434" gradientUnits="userSpaceOnUse">
<stop stop-color="#99FBFF"/>
<stop offset="0.484375" stop-color="#00DAE3"/>
<stop offset="1" stop-color="#99FBFF"/>
</linearGradient>
</defs>
</svg>
