<svg width="29" height="31" viewBox="0 0 29 31" fill="none" xmlns="http://www.w3.org/2000/svg">
<path d="M7.10204 5.91837H20.7143C21.2046 5.91837 21.602 5.52095 21.602 5.03061C21.602 4.54028 21.2046 4.14286 20.7143 4.14286V0.887755C20.7143 0.397418 20.3169 0 19.8265 0H7.9898C7.49946 0 7.10204 0.397418 7.10204 0.887755V4.14286C6.6117 4.14286 6.21429 4.54028 6.21429 5.03061C6.21429 5.52095 6.6117 5.91837 7.10204 5.91837ZM23.3776 19.0571C20.2773 19.0571 17.7551 21.5794 17.7551 24.6796C17.7551 25.91 18.1528 27.0493 18.8257 27.9758L26.6738 20.1278C25.7473 19.4548 24.608 19.0571 23.3776 19.0571ZM27.9294 21.3834L20.0813 29.2314C21.0081 29.9044 22.1471 30.302 23.3776 30.302C26.4778 30.302 29 27.7798 29 24.6796C29 23.4492 28.6023 22.3099 27.9294 21.3834ZM3.55102 14.3224C1.58985 14.3224 0 15.9123 0 17.8735V21.4245H7.10204V17.8735C7.10204 15.9123 5.51219 14.3224 3.55102 14.3224ZM0 23.2V26.751C0 28.7122 1.58985 30.302 3.55102 30.302C5.51219 30.302 7.10204 28.7122 7.10204 26.751V23.2H0Z" fill="url(#paint0_linear_404_5024)"/>
<path d="M15.9795 24.6796C15.9795 20.5938 19.2917 17.2816 23.3774 17.2816C23.678 17.2816 23.9741 17.3001 24.2652 17.3348V13.3755H6.40095C7.88847 14.3212 8.87743 15.9839 8.87743 17.8734V26.751C8.87743 28.114 8.36253 29.359 7.51739 30.302H18.5697C16.9844 28.9452 15.9795 26.9299 15.9795 24.6796ZM14.7958 19.8857V20.7734C14.7958 21.2638 14.3984 21.6612 13.908 21.6612C13.4177 21.6612 13.0203 21.2638 13.0203 20.7734V19.8857H12.1325C11.6422 19.8857 11.2448 19.4883 11.2448 18.9979C11.2448 18.5076 11.6422 18.1102 12.1325 18.1102H13.0203V17.2224C13.0203 16.7321 13.4177 16.3347 13.908 16.3347C14.3984 16.3347 14.7958 16.7321 14.7958 17.2224V18.1102H15.6836C16.1739 18.1102 16.5713 18.5076 16.5713 18.9979C16.5713 19.4883 16.1739 19.8857 15.6836 19.8857H14.7958ZM19.8264 7.69385H7.98968C5.72241 7.69385 3.84818 9.40278 3.58398 11.6H24.232C23.9678 9.40278 22.0936 7.69385 19.8264 7.69385H19.8264Z" fill="url(#paint1_linear_404_5024)"/>
<defs>
<linearGradient id="paint0_linear_404_5024" x1="0" y1="30.3021" x2="29" y2="30.3021" gradientUnits="userSpaceOnUse">
<stop stop-color="#99FBFF"/>
<stop offset="0.484375" stop-color="#00DAE3"/>
<stop offset="1" stop-color="#99FBFF"/>
</linearGradient>
<linearGradient id="paint1_linear_404_5024" x1="3.58398" y1="30.302" x2="24.2652" y2="30.302" gradientUnits="userSpaceOnUse">
<stop stop-color="#99FBFF"/>
<stop offset="0.484375" stop-color="#00DAE3"/>
<stop offset="1" stop-color="#99FBFF"/>
</linearGradient>
</defs>
</svg>
