<svg width="25" height="25" viewBox="0 0 25 25" fill="none" xmlns="http://www.w3.org/2000/svg">
<path d="M23.1771 0H1.82292C0.817708 0 0 0.817708 0 1.82292V4.42708C0 5.43229 0.817708 6.25 1.82292 6.25H23.1771C24.1823 6.25 25 5.43229 25 4.42708V1.82292C25 0.817708 24.1823 0 23.1771 0ZM0.78125 11.9792H15.8854C16.0926 11.9792 16.2913 11.8969 16.4378 11.7503C16.5844 11.6038 16.6667 11.4051 16.6667 11.1979C16.6667 10.9907 16.5844 10.792 16.4378 10.6455C16.2913 10.499 16.0926 10.4167 15.8854 10.4167H0.78125C0.57405 10.4167 0.375336 10.499 0.228823 10.6455C0.08231 10.792 0 10.9907 0 11.1979C0 11.4051 0.08231 11.6038 0.228823 11.7503C0.375336 11.8969 0.57405 11.9792 0.78125 11.9792ZM0.78125 15.1042H15.8854C16.0926 15.1042 16.2913 15.0219 16.4378 14.8753C16.5844 14.7288 16.6667 14.5301 16.6667 14.3229C16.6667 14.1157 16.5844 13.917 16.4378 13.7705C16.2913 13.624 16.0926 13.5417 15.8854 13.5417H0.78125C0.57405 13.5417 0.375336 13.624 0.228823 13.7705C0.08231 13.917 0 14.1157 0 14.3229C0 14.5301 0.08231 14.7288 0.228823 14.8753C0.375336 15.0219 0.57405 15.1042 0.78125 15.1042ZM0.78125 21.3542H15.8854C16.0926 21.3542 16.2913 21.2719 16.4378 21.1253C16.5844 20.9788 16.6667 20.7801 16.6667 20.5729C16.6667 20.3657 16.5844 20.167 16.4378 20.0205C16.2913 19.874 16.0926 19.7917 15.8854 19.7917H0.78125C0.57405 19.7917 0.375336 19.874 0.228823 20.0205C0.08231 20.167 0 20.3657 0 20.5729C0 20.7801 0.08231 20.9788 0.228823 21.1253C0.375336 21.2719 0.57405 21.3542 0.78125 21.3542ZM0.78125 24.4792H15.8854C16.0926 24.4792 16.2913 24.3969 16.4378 24.2503C16.5844 24.1038 16.6667 23.9051 16.6667 23.6979C16.6667 23.4907 16.5844 23.292 16.4378 23.1455C16.2913 22.999 16.0926 22.9167 15.8854 22.9167H0.78125C0.57405 22.9167 0.375336 22.999 0.228823 23.1455C0.08231 23.292 0 23.4907 0 23.6979C0 23.9051 0.08231 24.1038 0.228823 24.2503C0.375336 24.3969 0.57405 24.4792 0.78125 24.4792Z" fill="url(#paint0_linear_404_5016)"/>
<path d="M21.875 15.625C23.6009 15.625 25 14.2259 25 12.5C25 10.7741 23.6009 9.375 21.875 9.375C20.1491 9.375 18.75 10.7741 18.75 12.5C18.75 14.2259 20.1491 15.625 21.875 15.625Z" fill="url(#paint1_linear_404_5016)"/>
<path d="M21.875 25C23.6009 25 25 23.6009 25 21.875C25 20.1491 23.6009 18.75 21.875 18.75C20.1491 18.75 18.75 20.1491 18.75 21.875C18.75 23.6009 20.1491 25 21.875 25Z" fill="url(#paint2_linear_404_5016)"/>
<defs>
<linearGradient id="paint0_linear_404_5016" x1="0" y1="24.4792" x2="25" y2="24.4792" gradientUnits="userSpaceOnUse">
<stop stop-color="#99FBFF"/>
<stop offset="0.484375" stop-color="#00DAE3"/>
<stop offset="1" stop-color="#99FBFF"/>
</linearGradient>
<linearGradient id="paint1_linear_404_5016" x1="18.75" y1="15.625" x2="25" y2="15.625" gradientUnits="userSpaceOnUse">
<stop stop-color="#99FBFF"/>
<stop offset="0.484375" stop-color="#00DAE3"/>
<stop offset="1" stop-color="#99FBFF"/>
</linearGradient>
<linearGradient id="paint2_linear_404_5016" x1="18.75" y1="25" x2="25" y2="25" gradientUnits="userSpaceOnUse">
<stop stop-color="#99FBFF"/>
<stop offset="0.484375" stop-color="#00DAE3"/>
<stop offset="1" stop-color="#99FBFF"/>
</linearGradient>
</defs>
</svg>
