<svg width="27" height="28" viewBox="0 0 27 28" fill="none" xmlns="http://www.w3.org/2000/svg">
<path d="M20.8818 0H6.11909C4.72127 0.00167437 3.38119 0.557696 2.39278 1.5461C1.40438 2.53451 0.848354 3.87459 0.84668 5.27241V15.8172C0.848354 17.215 1.40438 18.5551 2.39278 19.5435C3.38119 20.5319 4.72127 21.088 6.11909 21.0896H8.22805V26.362C8.22824 26.5635 8.28615 26.7608 8.39493 26.9304C8.50371 27.1 8.65881 27.2348 8.84186 27.319C9.02491 27.4032 9.22825 27.4332 9.42782 27.4055C9.62739 27.3777 9.81483 27.2934 9.96795 27.1624L17.0541 21.0896H20.8818C22.2796 21.088 23.6197 20.5319 24.6081 19.5435C25.5965 18.5551 26.1526 17.215 26.1542 15.8172V5.27241C26.1526 3.87459 25.5965 2.53451 24.6081 1.5461C23.6197 0.557696 22.2796 0.00167437 20.8818 0ZM7.17357 12.6538C6.75646 12.6538 6.34871 12.5301 6.00189 12.2984C5.65508 12.0666 5.38476 11.7372 5.22514 11.3519C5.06552 10.9665 5.02375 10.5425 5.10513 10.1334C5.1865 9.72428 5.38736 9.3485 5.68231 9.05356C5.97725 8.75861 6.35303 8.55775 6.76213 8.47638C7.17123 8.395 7.59527 8.43677 7.98063 8.59639C8.366 8.75601 8.69537 9.02632 8.92711 9.37314C9.15884 9.71996 9.28253 10.1277 9.28253 10.5448C9.28253 11.1041 9.06034 11.6406 8.66483 12.0361C8.26932 12.4316 7.7329 12.6538 7.17357 12.6538ZM13.5005 12.6538C13.0833 12.6538 12.6756 12.5301 12.3288 12.2984C11.982 12.0666 11.7117 11.7372 11.552 11.3519C11.3924 10.9665 11.3506 10.5425 11.432 10.1334C11.5134 9.72428 11.7143 9.3485 12.0092 9.05356C12.3041 8.75861 12.6799 8.55775 13.089 8.47638C13.4981 8.395 13.9222 8.43677 14.3075 8.59639C14.6929 8.75601 15.0223 9.02632 15.254 9.37314C15.4857 9.71996 15.6094 10.1277 15.6094 10.5448C15.6094 11.1041 15.3872 11.6406 14.9917 12.0361C14.5962 12.4316 14.0598 12.6538 13.5005 12.6538ZM19.8273 12.6538C19.4102 12.6538 19.0025 12.5301 18.6557 12.2984C18.3089 12.0666 18.0385 11.7372 17.8789 11.3519C17.7193 10.9665 17.6775 10.5425 17.7589 10.1334C17.8403 9.72428 18.0411 9.3485 18.3361 9.05356C18.631 8.75861 19.0068 8.55775 19.4159 8.47638C19.825 8.395 20.2491 8.43677 20.6344 8.59639C21.0198 8.75601 21.3492 9.02632 21.5809 9.37314C21.8126 9.71996 21.9363 10.1277 21.9363 10.5448C21.9363 11.1041 21.7141 11.6406 21.3186 12.0361C20.9231 12.4316 20.3867 12.6538 19.8273 12.6538Z" fill="url(#paint0_linear_404_4986)"/>
<defs>
<linearGradient id="paint0_linear_404_4986" x1="0.84668" y1="27.4156" x2="26.1542" y2="27.4156" gradientUnits="userSpaceOnUse">
<stop stop-color="#99FBFF"/>
<stop offset="0.484375" stop-color="#00DAE3"/>
<stop offset="1" stop-color="#99FBFF"/>
</linearGradient>
</defs>
</svg>
