<svg width="123" height="123" viewBox="0 0 123 123" fill="none" xmlns="http://www.w3.org/2000/svg">
<path d="M61.5 123C45.1892 123 29.5464 116.521 18.0129 104.987C6.47945 93.4536 0 77.8108 0 61.5C0 45.1892 6.47945 29.5464 18.0129 18.0129C29.5464 6.47945 45.1892 0 61.5 0C77.8108 0 93.4536 6.47945 104.987 18.0129C116.521 29.5464 123 45.1892 123 61.5C123 77.8108 116.521 93.4536 104.987 104.987C93.4536 116.521 77.8108 123 61.5 123ZM39.975 55.35C42.4216 55.35 44.768 54.3781 46.4981 52.6481C48.2281 50.918 49.2 48.5716 49.2 46.125C49.2 43.6784 48.2281 41.332 46.4981 39.6019C44.768 37.8719 42.4216 36.9 39.975 36.9C37.5284 36.9 35.182 37.8719 33.4519 39.6019C31.7219 41.332 30.75 43.6784 30.75 46.125C30.75 48.5716 31.7219 50.918 33.4519 52.6481C35.182 54.3781 37.5284 55.35 39.975 55.35ZM83.025 55.35C85.4716 55.35 87.818 54.3781 89.5481 52.6481C91.2781 50.918 92.25 48.5716 92.25 46.125C92.25 43.6784 91.2781 41.332 89.5481 39.6019C87.818 37.8719 85.4716 36.9 83.025 36.9C80.5784 36.9 78.232 37.8719 76.5019 39.6019C74.7719 41.332 73.8 43.6784 73.8 46.125C73.8 48.5716 74.7719 50.918 76.5019 52.6481C78.232 54.3781 80.5784 55.35 83.025 55.35ZM96.309 73.8H26.691C29.2265 81.0077 33.937 87.2505 40.172 91.6668C46.4071 96.083 53.8594 98.4549 61.5 98.4549C69.1406 98.4549 76.5929 96.083 82.828 91.6668C89.0631 87.2505 93.7735 81.0077 96.309 73.8Z" fill="black"/>
<path d="M61.5 123C45.1892 123 29.5464 116.521 18.0129 104.987C6.47945 93.4536 0 77.8108 0 61.5C0 45.1892 6.47945 29.5464 18.0129 18.0129C29.5464 6.47945 45.1892 0 61.5 0C77.8108 0 93.4536 6.47945 104.987 18.0129C116.521 29.5464 123 45.1892 123 61.5C123 77.8108 116.521 93.4536 104.987 104.987C93.4536 116.521 77.8108 123 61.5 123ZM39.975 55.35C42.4216 55.35 44.768 54.3781 46.4981 52.6481C48.2281 50.918 49.2 48.5716 49.2 46.125C49.2 43.6784 48.2281 41.332 46.4981 39.6019C44.768 37.8719 42.4216 36.9 39.975 36.9C37.5284 36.9 35.182 37.8719 33.4519 39.6019C31.7219 41.332 30.75 43.6784 30.75 46.125C30.75 48.5716 31.7219 50.918 33.4519 52.6481C35.182 54.3781 37.5284 55.35 39.975 55.35ZM83.025 55.35C85.4716 55.35 87.818 54.3781 89.5481 52.6481C91.2781 50.918 92.25 48.5716 92.25 46.125C92.25 43.6784 91.2781 41.332 89.5481 39.6019C87.818 37.8719 85.4716 36.9 83.025 36.9C80.5784 36.9 78.232 37.8719 76.5019 39.6019C74.7719 41.332 73.8 43.6784 73.8 46.125C73.8 48.5716 74.7719 50.918 76.5019 52.6481C78.232 54.3781 80.5784 55.35 83.025 55.35ZM96.309 73.8H26.691C29.2265 81.0077 33.937 87.2505 40.172 91.6668C46.4071 96.083 53.8594 98.4549 61.5 98.4549C69.1406 98.4549 76.5929 96.083 82.828 91.6668C89.0631 87.2505 93.7735 81.0077 96.309 73.8Z" fill="#00DAE3"/>
</svg>
