<svg width="93" height="112" viewBox="0 0 93 112" fill="none" xmlns="http://www.w3.org/2000/svg">
<path d="M61.3451 27.6802H72.3191L72.1302 20.9639H62.8535L71.5722 2.85884L61.7084 2.02951L53.0449 8.70209L55.9337 1.15639L45.8228 0L42.5068 9.42921L37.0576 2.1288L22.0672 1.60609L31.9862 20.9668L23.032 20.6777V27.6773H31.6607C13.2583 38.4995 0 66.7871 0 82.0683C0 101.225 20.8204 112 46.5 112C72.1796 112 93 101.225 93 82.0683C93.0029 66.7871 79.7475 38.5024 61.3451 27.6802ZM50.3886 91.2581V97.8898H44.0442V91.7136C39.7081 91.5238 35.4998 90.3441 33.0412 88.919L34.9825 81.3149C37.6999 82.813 41.5216 84.1738 45.7269 84.1738C49.415 84.1738 51.9405 82.7429 51.9405 80.1468C51.9405 77.6676 49.8713 76.1053 45.0818 74.4846C38.1533 72.1456 33.4306 68.8896 33.4306 62.5879C33.4306 56.8644 37.4441 52.3732 44.3697 51.0124V44.8333H50.7141V50.5568C55.0473 50.7554 57.9652 51.6577 60.0984 52.7002L58.2209 60.0503C56.5382 59.3377 53.5593 57.8368 48.9006 57.8368C44.6923 57.8368 43.3322 59.656 43.3322 61.4753C43.3322 63.6246 45.5991 64.9883 51.1006 67.0703C58.7993 69.8095 61.9089 73.3779 61.9089 79.2358C61.9118 85.0148 57.8315 89.9586 50.3886 91.2581Z" fill="#00DAE3"/>
</svg>
