<svg width="29" height="30" viewBox="0 0 29 30" fill="none" xmlns="http://www.w3.org/2000/svg">
<path d="M26.3191 11.8188C26.3191 5.30175 21.0171 0 14.4999 0C7.98277 0 2.68079 5.30175 2.68079 11.8188C2.68079 18.3356 7.98277 23.6374 14.4998 23.6374C21.0171 23.6374 26.319 18.3356 26.319 11.8188H26.3191ZM12.3931 16.8604L8.35785 12.8252L9.58098 11.6023L12.3931 14.4143L19.419 7.38863L20.6421 8.61153L12.3931 16.8604ZM3.57779 19.8242L0 25.0425L5.28971 24.056L6.27613 29.3459L9.62643 24.4595C7.1941 23.5184 5.09942 21.8948 3.57779 19.8242ZM25.4222 19.8242C23.9006 21.8948 21.8059 23.5184 19.3736 24.4595L22.7239 29.3459L23.7103 24.056L29 25.0425L25.4222 19.8242Z" fill="url(#paint0_linear_404_5010)"/>
<defs>
<linearGradient id="paint0_linear_404_5010" x1="0" y1="29.3459" x2="29" y2="29.3459" gradientUnits="userSpaceOnUse">
<stop stop-color="#99FBFF"/>
<stop offset="0.484375" stop-color="#00DAE3"/>
<stop offset="1" stop-color="#99FBFF"/>
</linearGradient>
</defs>
</svg>
