<svg width="25" height="31" viewBox="0 0 25 31" fill="none" xmlns="http://www.w3.org/2000/svg">
<path d="M16.4906 7.80293H19.4406L19.3898 6.00605H16.8961L19.2398 1.1623L16.5883 0.94043L14.2594 2.72559L15.0359 0.706836L12.318 0.397461L11.4266 2.92012L9.96172 0.966992L5.93203 0.827148L8.59844 6.00684L6.19141 5.92949V7.80215H8.51094C3.56406 10.6975 0 18.2654 0 22.3537C0 27.4787 5.59688 30.3615 12.5 30.3615C19.4031 30.3615 25 27.4787 25 22.3537C25.0008 18.2654 21.4375 10.6982 16.4906 7.80293ZM13.5453 24.8123V26.5865H11.8398V24.9342C10.6742 24.8834 9.54297 24.5678 8.88203 24.1865L9.40391 22.1522C10.1344 22.5529 11.1617 22.917 12.2922 22.917C13.2836 22.917 13.9625 22.5342 13.9625 21.8396C13.9625 21.1764 13.4062 20.7584 12.1188 20.3248C10.2563 19.699 8.98672 18.8279 8.98672 17.142C8.98672 15.6107 10.0656 14.4092 11.9273 14.0451V12.392H13.6328V13.9232C14.7977 13.9764 15.582 14.2178 16.1555 14.4967L15.6508 16.4631C15.1984 16.2725 14.3977 15.8709 13.1453 15.8709C12.0141 15.8709 11.6484 16.3576 11.6484 16.8443C11.6484 17.4193 12.2578 17.7842 13.7367 18.3412C15.8063 19.074 16.6422 20.0287 16.6422 21.5959C16.643 23.142 15.5461 24.4646 13.5453 24.8123Z" fill="url(#paint0_linear_404_5004)"/>
<defs>
<linearGradient id="paint0_linear_404_5004" x1="0" y1="30.3616" x2="25" y2="30.3616" gradientUnits="userSpaceOnUse">
<stop stop-color="#99FBFF"/>
<stop offset="0.484375" stop-color="#00DAE3"/>
<stop offset="1" stop-color="#99FBFF"/>
</linearGradient>
</defs>
</svg>
