<svg width="29" height="29" viewBox="0 0 29 29" fill="none" xmlns="http://www.w3.org/2000/svg">
<path d="M27.18 0.849609C27.18 0.380398 26.7996 0 26.3304 0H20.8702C20.401 0 20.0206 0.380398 20.0206 0.849609V4.67098H27.18V0.849609ZM18.0797 0.849609C18.0797 0.380398 17.6993 0 17.2301 0H11.7699C11.3007 0 10.9203 0.380398 10.9203 0.849609V4.67098H18.0797V0.849609ZM8.97941 0.849609C8.97941 0.380398 8.59901 0 8.1298 0H2.66964C2.20043 0 1.82003 0.380398 1.82003 0.849609V4.67098H8.97941V0.849609ZM0.849609 8.06942H28.1504C28.6196 8.06942 29 7.68902 29 7.21981C29 6.7506 28.6196 6.3702 28.1504 6.3702H0.849609C-0.26757 6.40781 -0.28377 8.02507 0.849609 8.06942ZM20.8702 10.0103C20.401 10.0103 20.0206 10.3907 20.0206 10.8599V14.6813H27.18V10.8599C27.18 10.3907 26.7996 10.0103 26.3304 10.0103H20.8702ZM11.7699 10.0103C11.3007 10.0103 10.9203 10.3907 10.9203 10.8599V14.6813H18.0797V10.8599C18.0797 10.3907 17.6993 10.0103 17.2301 10.0103H11.7699ZM2.66964 10.0103C2.20043 10.0103 1.82003 10.3907 1.82003 10.8599V14.6813H8.97941V10.8599C8.97941 10.3907 8.59901 10.0103 8.1298 10.0103H2.66964ZM28.1504 16.3805H26.5854C27.3513 16.7764 28.0445 17.2993 28.6355 17.9271C29.3097 17.4598 28.9825 16.3826 28.1504 16.3805ZM19.6543 16.3805H0.849609C0.380398 16.3805 0 16.7609 0 17.2301C0 17.6993 0.380398 18.0797 0.849609 18.0797H17.4645C18.0845 17.3843 18.8267 16.8084 19.6543 16.3805ZM23.1199 17.2397C19.8775 17.2397 17.2397 19.8775 17.2397 23.1198C17.5354 30.91 28.7056 30.9078 29 23.1198C29 19.8775 26.3622 17.2397 23.1199 17.2397ZM25.4847 22.5444L23.1328 24.8963C22.801 25.2281 22.2632 25.2281 21.9314 24.8964L20.7552 23.7207C19.9886 22.896 21.1306 21.7523 21.9565 22.519L22.5319 23.0941L24.2833 21.3429C25.1085 20.5762 26.2513 21.7192 25.4847 22.5444Z" fill="url(#paint0_linear_404_4992)"/>
<defs>
<linearGradient id="paint0_linear_404_4992" x1="0" y1="28.9617" x2="29" y2="28.9617" gradientUnits="userSpaceOnUse">
<stop stop-color="#99FBFF"/>
<stop offset="0.484375" stop-color="#00DAE3"/>
<stop offset="1" stop-color="#99FBFF"/>
</linearGradient>
</defs>
</svg>
