<svg viewBox="0 0 20 24"  xmlns="http://www.w3.org/2000/svg" style="display:none">

	<symbol viewBox="0 0 24 24" id="search">
		<path fill-rule="evenodd" clip-rule="evenodd" d="M8.56003 0.0402187C7.53552 0.138846 6.407 0.459154 5.41507 0.932981C2.69169 2.23379 0.730214 4.77395 0.167436 7.72876C-0.351031 10.4511 0.34772 13.2559 2.08114 15.4108C3.13457 16.7203 4.57554 17.7849 6.04451 18.3389C6.16617 18.3848 6.3595 18.4581 6.4742 18.5017C6.97394 18.6919 7.81974 18.8683 8.68266 18.9625C9.20028 19.0189 10.115 18.9934 10.7853 18.9038C12.3268 18.6977 13.9085 18.0496 15.1289 17.1241C15.2753 17.013 15.4197 16.9222 15.4498 16.9222C15.4798 16.9222 17.0514 18.4671 18.9421 20.3553C21.5241 22.9338 22.4292 23.8148 22.5779 23.8942C23.1778 24.2148 23.9313 23.7696 23.9881 23.0609C24.0253 22.5985 24.1889 22.7837 20.3649 18.9609C18.4708 17.0674 16.9209 15.4909 16.9207 15.4575C16.9206 15.4242 17.0118 15.277 17.1235 15.1305C17.395 14.7746 17.7178 14.2559 17.9574 13.7905C18.7959 12.1621 19.1552 10.1598 18.9249 8.39942C18.8338 7.7033 18.8107 7.57517 18.693 7.11331C18.6168 6.81419 18.5652 6.66006 18.3321 6.03625C18.2082 5.70471 17.8545 4.9752 17.6817 4.69474C16.3365 2.5114 14.5191 1.09735 12.1316 0.376336C11.0639 0.0539127 9.72601 -0.0719872 8.56003 0.0402187ZM10.7084 2.10693C10.9834 2.15028 11.2841 2.2126 11.3767 2.24541C11.4693 2.27818 11.5696 2.30503 11.5996 2.30503C11.6781 2.30503 12.351 2.56033 12.6893 2.71843C13.9457 3.30565 15.1337 4.37059 15.884 5.58208C16.3858 6.39222 16.7877 7.50628 16.9221 8.45962C16.9474 8.63945 16.9682 9.10682 16.9682 9.49821C16.9682 10.2735 16.9269 10.6584 16.7806 11.2484C16.4423 12.6124 15.7979 13.7657 14.8241 14.7498C13.7974 15.7875 12.666 16.4303 11.2469 16.7823C10.6606 16.9278 10.2748 16.969 9.49673 16.9695C8.72166 16.9699 8.33693 16.9288 7.74658 16.7823C6.37288 16.4416 5.23779 15.8055 4.23766 14.8159C2.77735 13.371 2.01548 11.5479 2.01548 9.49821C2.01548 8.49859 2.14776 7.77519 2.51333 6.77538C2.67122 6.34364 3.16511 5.43599 3.4074 5.1323C3.45806 5.06883 3.52903 4.97682 3.56515 4.92785C3.86021 4.52784 4.52654 3.86149 4.92653 3.56641C4.9755 3.5303 5.0675 3.45933 5.13097 3.40867C5.43465 3.16637 6.34227 2.67246 6.77399 2.51456C7.41074 2.28172 7.85336 2.16655 8.38125 2.09635C8.62454 2.064 8.86686 2.02977 8.91975 2.02027C9.14446 1.97984 10.2384 2.03284 10.7084 2.10693Z"/>
	</symbol>
		
	<symbol viewBox="0 0 20 22" id="user">
		<path d="M10.001 11.4241C13.1439 11.4241 15.7131 8.8549 15.7131 5.71203C15.7131 2.56915 13.1439 0 10.001 0C6.85816 0 4.28906 2.56915 4.28906 5.71203C4.28906 8.8549 6.85821 11.4241 10.001 11.4241Z"/>
		<path d="M19.8039 15.9887C19.6542 15.6145 19.4547 15.2653 19.2302 14.941C18.0828 13.2449 16.3119 12.1224 14.3164 11.848C14.067 11.8231 13.7926 11.873 13.5931 12.0226C12.5454 12.7959 11.2983 13.195 10.0012 13.195C8.70412 13.195 7.45697 12.7959 6.40935 12.0226C6.20978 11.873 5.9354 11.7981 5.68599 11.848C3.69052 12.1224 1.89462 13.2449 0.772179 14.941C0.547691 15.2653 0.348125 15.6395 0.198498 15.9887C0.123685 16.1383 0.148607 16.3129 0.22342 16.4626C0.422986 16.8118 0.672396 17.161 0.896884 17.4603C1.24608 17.9343 1.62024 18.3583 2.04429 18.7574C2.39349 19.1066 2.79257 19.4308 3.1917 19.7551C5.1622 21.2268 7.53183 22 9.97628 22C12.4207 22 14.7904 21.2267 16.7609 19.7551C17.1599 19.4558 17.559 19.1066 17.9083 18.7574C18.3073 18.3583 18.7064 17.9342 19.0557 17.4603C19.3051 17.1361 19.5296 16.8118 19.7291 16.4626C19.8538 16.3129 19.8787 16.1383 19.8039 15.9887Z"/>
	</symbol>

	<symbol viewBox="0 0 22 20" id="cart">
		<path fill-rule="evenodd" clip-rule="evenodd" d="M0.760379 0.0174862C0.319493 0.093785 -0.0301058 0.540916 0.00205414 0.987313C0.0320897 1.40418 0.34944 1.75374 0.777934 1.84192C0.903033 1.86764 1.25954 1.87861 1.99308 1.87932C2.56411 1.87985 3.06389 1.89218 3.10389 1.90673C3.1871 1.93697 3.25558 2.10788 3.2854 2.35982C3.29553 2.44514 3.3222 2.63554 3.34468 2.78291C3.36719 2.93029 3.40732 3.19685 3.43384 3.37525C3.46037 3.55366 3.49586 3.77579 3.51268 3.86887C3.52953 3.96195 3.56251 4.17138 3.586 4.33428C3.67026 4.91889 3.75264 5.46708 3.84457 6.05488C3.86762 6.20226 3.90096 6.41804 3.91866 6.53439C3.93636 6.65074 3.97056 6.87287 3.99463 7.028C4.06866 7.50492 4.1012 7.72504 4.12805 7.93061C4.14225 8.03921 4.16207 8.15962 4.17207 8.19818C4.18211 8.23674 4.21037 8.40809 4.23486 8.57897C4.25935 8.74985 4.29652 9.00387 4.31747 9.1435C4.33839 9.28312 4.3707 9.4989 4.3892 9.62301C4.40773 9.74712 4.44216 9.96924 4.46567 10.1166C4.48922 10.264 4.52881 10.5179 4.55363 10.6808C4.57847 10.8436 4.61275 11.0658 4.62978 11.1744C4.64683 11.283 4.67339 11.467 4.68882 11.5834C4.75482 12.0813 4.86 12.5161 4.9445 12.6403C4.9653 12.6709 4.98233 12.7134 4.98233 12.7347C4.98233 12.857 5.55858 13.5372 5.81155 13.7134C5.91343 13.7844 6.1888 13.9527 6.20308 13.9527C6.21175 13.9527 6.30245 13.9904 6.40459 14.0365C6.58324 14.1171 6.6992 14.1511 6.99114 14.2089C7.07461 14.2254 9.25042 14.2322 12.6708 14.2265C18.1476 14.2175 18.2176 14.2167 18.4216 14.16C18.6592 14.0939 19.1479 13.8761 19.1828 13.8208C19.1958 13.8003 19.221 13.7835 19.2388 13.7835C19.3185 13.7835 19.7612 13.382 19.9302 13.1565C20.0578 12.9862 20.2873 12.5238 20.312 12.3873C20.3232 12.3252 20.3424 12.2617 20.3547 12.2462C20.367 12.2307 20.3864 12.1609 20.3978 12.0911C20.4092 12.0213 20.4362 11.888 20.4577 11.7949C20.4793 11.7018 20.5177 11.5241 20.5431 11.4C20.5686 11.2759 20.6036 11.1109 20.6211 11.0333C20.6592 10.8637 20.7283 10.5271 20.7687 10.3141C20.7849 10.2287 20.8169 10.0764 20.8397 9.97559C20.88 9.798 20.9185 9.61553 21.0152 9.1435C21.0406 9.01939 21.0755 8.85438 21.0927 8.77681C21.1514 8.51209 21.215 8.21291 21.2545 8.01523C21.2762 7.90664 21.3141 7.72259 21.3387 7.60624C21.3632 7.48989 21.4041 7.2868 21.4295 7.15493C21.4549 7.02307 21.4833 6.89614 21.4927 6.87287C21.502 6.8496 21.5275 6.73536 21.5494 6.61901C21.5713 6.50266 21.6111 6.30592 21.6378 6.18181C21.7443 5.68737 21.7725 5.5528 21.8122 5.34971C21.835 5.23336 21.8834 5.00489 21.9199 4.84199C22.0131 4.42555 22.0232 4.22393 21.9593 4.05943C21.8162 3.6919 21.5426 3.47175 21.1484 3.4071C21.0075 3.384 18.8247 3.37525 13.1934 3.37525H5.43257L5.41442 3.25538C5.40442 3.18943 5.37595 3.00857 5.35113 2.85343C5.32632 2.6983 5.28655 2.44444 5.26274 2.2893C5.14743 1.53737 5.07063 1.29265 4.84271 0.950954C4.64966 0.661527 4.15824 0.253067 3.94011 0.200744C3.89668 0.190308 3.86116 0.171043 3.86116 0.157927C3.86116 0.144782 3.81138 0.125151 3.75051 0.114235C3.68968 0.103347 3.5934 0.0749994 3.53661 0.0512495C3.45007 0.0150322 3.2279 0.00690874 2.16465 0.00101356C1.46686 -0.00282253 0.834937 0.00456758 0.760379 0.0174862ZM7.49021 15.1633C7.46587 15.1766 7.38621 15.1965 7.31318 15.2077C7.05127 15.2475 6.58088 15.4701 6.32897 15.6733C5.95671 15.9737 5.66642 16.3589 5.53179 16.7311C5.45307 16.9487 5.36609 17.39 5.36597 17.5722C5.36586 17.7637 5.44033 18.1765 5.50426 18.3388C5.57277 18.5127 5.73127 18.838 5.7642 18.8723C5.78042 18.8891 5.83182 18.9566 5.87841 19.0222C5.97536 19.1587 6.21736 19.3972 6.36904 19.5057C6.42584 19.5464 6.47894 19.586 6.48706 19.5939C6.56067 19.6651 6.9953 19.8577 7.25418 19.9339C7.44321 19.9896 7.53777 19.9989 7.90327 19.9979C8.30368 19.9969 8.34861 19.9912 8.60474 19.9082C8.75525 19.8594 8.94502 19.7847 9.02651 19.742C9.10797 19.6994 9.20723 19.648 9.24706 19.6277C9.28689 19.6075 9.31949 19.5789 9.31949 19.5643C9.31949 19.5496 9.33746 19.5376 9.35941 19.5376C9.40818 19.5376 9.91401 19.0423 9.97151 18.9382C9.99426 18.8971 10.0574 18.7846 10.1118 18.6884C10.2496 18.4446 10.3124 18.2486 10.3706 17.8811C10.4141 17.6072 10.4158 17.5309 10.3837 17.3169C10.3366 17.0042 10.2793 16.8078 10.1673 16.5759C9.73488 15.6808 8.84854 15.1353 7.83102 15.1382C7.66792 15.1387 7.51455 15.15 7.49021 15.1633ZM16.076 15.196C15.9543 15.2248 15.8215 15.2628 15.781 15.2805C15.7404 15.2981 15.6607 15.3327 15.604 15.3572C15.4471 15.4251 15.1574 15.5924 15.0582 15.6725C14.8805 15.8159 14.5713 16.1313 14.5713 16.1692C14.5713 16.181 14.5529 16.2107 14.5304 16.2352C14.4146 16.3613 14.2557 16.7146 14.1678 17.0413C14.0945 17.3142 14.0958 17.841 14.1706 18.1273C14.201 18.2436 14.2372 18.3509 14.251 18.3656C14.2649 18.3804 14.2762 18.4074 14.2762 18.4257C14.2762 18.5004 14.4461 18.8048 14.6156 19.0337C14.7599 19.2288 15.0982 19.5327 15.2927 19.6421C15.465 19.7391 15.7914 19.8762 15.9875 19.9341C16.178 19.9903 16.2724 19.9995 16.6661 20C17.0642 20.0005 17.1521 19.992 17.3447 19.9344C17.5421 19.8754 17.9256 19.7174 17.9643 19.6791C17.9724 19.671 18.0156 19.6465 18.0602 19.6245C18.1048 19.6025 18.1413 19.5739 18.1413 19.5611C18.1413 19.5482 18.1558 19.5376 18.1735 19.5376C18.1912 19.5376 18.2462 19.5027 18.2958 19.4601C18.7009 19.1116 18.9155 18.8112 19.088 18.351C19.1867 18.0875 19.1877 18.0802 19.1882 17.5914C19.1888 17.0863 19.1687 16.9647 19.0346 16.6605C18.6966 15.8938 18.0373 15.3675 17.1824 15.182C16.8998 15.1207 16.3655 15.1275 16.076 15.196Z"/>
	</symbol>

	<symbol viewBox="0 0 512 512" id="telegram">
		<path d="M481 43.4c-2.5.7-42.1 15.8-88 33.4-45.9 17.6-146 55.9-222.5 85.2C94 191.3 27.7 216.7 23 218.6 7.2 225 0 231.6 0 240c0 5.4 2.5 8.9 9 12.4 4.4 2.4 120.7 39.4 125 39.8.8.1 62.3-37.9 136.7-84.5 74.3-46.5 136.6-85.3 138.4-86.3 4-2 10.3-2.4 12.1-.6 1 1 .9 1.7-.2 3.6-.8 1.3-50.8 46.6-111 100.6l-109.5 98.3-3.6 50.6c-2 27.8-4 54.8-4.3 59.8l-.7 9.3h4.4c8 0 12.7-3.7 45.6-35.2l31-29.7 59.3 43.4c39.1 28.7 61.2 44.2 64.8 45.7 3.6 1.4 7.8 2.2 12 2.2 10.5.1 16.7-4.5 21.9-16.4 1-2.5 19.8-88.2 41.6-190.5 39.1-183.4 39.7-186.1 39.3-195.6-.3-8.6-.7-10.2-3.4-14.5-5.3-8.6-16.5-12.3-27.4-9z"/>
	</symbol>

	<symbol viewBox="0 0 22 16" id="email">
		<path fill-rule="evenodd" clip-rule="evenodd" d="M1.86752 0.0498168C1.19299 0.19893 0.58771 0.693163 0.276647 1.34885C0.174679 1.56372 0.0912877 1.77304 0.0912877 1.81398C0.0912877 1.86222 0.336258 2.02312 0.787356 2.27105C1.17022 2.48149 1.71963 2.78395 2.00833 2.94322C2.29703 3.10244 2.83106 3.39573 3.19507 3.5949C4.04998 4.06264 4.90977 4.53498 5.56855 4.89878C5.85725 5.05818 6.39128 5.35161 6.75529 5.55078C7.34081 5.87113 7.75 6.09577 8.8549 6.70326C10.5409 7.6303 10.9629 7.85649 11.0066 7.85649C11.0346 7.85649 11.1627 7.79623 11.2913 7.72256C11.4199 7.64889 11.6997 7.49418 11.913 7.37874C12.1264 7.2633 13.2458 6.64971 14.4006 6.01517C17.131 4.51486 17.6082 4.25343 18.075 4.0021C18.2883 3.88716 18.617 3.70527 18.8053 3.59779C18.9935 3.49035 19.7608 3.06867 20.5102 2.66069C21.2597 2.25275 21.8836 1.8917 21.8968 1.85831C21.9339 1.76401 21.6874 1.21659 21.4757 0.923165C21.2541 0.616091 20.785 0.269947 20.38 0.11464L20.1061 0.00967463L11.1143 0.00157153C4.2263 -0.0046221 2.06278 0.00669422 1.86752 0.0498168ZM0 8.40754C0 10.9902 0.0120043 13.1155 0.026656 13.1304C0.0413533 13.1454 0.303212 12.9774 0.608615 12.7571C0.914018 12.5369 1.32824 12.2415 1.52907 12.1008C1.7299 11.96 2.17151 11.6455 2.51041 11.4018C2.84932 11.158 3.26011 10.8649 3.42329 10.7504C3.58646 10.6359 3.99726 10.3426 4.33616 10.0985C4.67507 9.85451 5.17829 9.49449 5.45444 9.29844C5.73058 9.10239 6.31204 8.6883 6.74662 8.37829L7.53667 7.81458L7.36281 7.70495C7.26714 7.64465 7.01432 7.50443 6.80093 7.39341C6.58755 7.28239 6.39242 7.17612 6.36732 7.15731C6.34221 7.13849 6.03412 6.96675 5.68266 6.77563C5.00859 6.40909 3.87279 5.78553 1.98551 4.74589C0.24602 3.78765 0.104205 3.71188 0.0501625 3.71188C0.0140126 3.71188 0 5.02488 0 8.40754ZM21.658 3.85806C21.3414 4.02189 20.0315 4.73937 19.6953 4.93305C19.5698 5.00542 19.2898 5.15732 19.0731 5.27072C18.8564 5.38411 18.5997 5.52252 18.5026 5.5783C18.4055 5.63409 18.172 5.76355 17.9837 5.86601C17.7954 5.96841 17.5592 6.09969 17.4588 6.15767C17.3584 6.21564 16.9886 6.41924 16.6372 6.61003C15.087 7.45167 14.5796 7.73159 14.5275 7.77388C14.4876 7.80624 14.7791 8.03815 15.5545 8.59092C16.15 9.0154 17.1507 9.72971 17.7783 10.1783C18.4059 10.6268 19.2685 11.2416 19.6953 11.5445C20.1221 11.8474 20.6458 12.2212 20.8592 12.3752C21.0726 12.5292 21.4045 12.7684 21.5968 12.9067C21.7891 13.045 21.9586 13.1458 21.9734 13.1307C22.0134 13.0899 22.0061 3.71151 21.9661 3.71412C21.9472 3.71537 21.8086 3.78015 21.658 3.85806ZM8.91913 8.77939C8.82104 8.85185 8.50459 9.07854 8.21589 9.28316C7.70838 9.64286 6.73908 10.334 5.84241 10.9756C5.60392 11.1462 5.2034 11.4325 4.95236 11.6118C4.70132 11.7911 4.28025 12.0934 4.01666 12.2835C3.75306 12.4737 3.43091 12.7027 3.30073 12.7925C3.1706 12.8823 2.80239 13.1444 2.48252 13.3749C1.69964 13.9391 1.09071 14.3733 0.71889 14.6328C0.549461 14.751 0.410795 14.869 0.410795 14.8951C0.410795 14.9212 0.485285 15.0353 0.576299 15.1486C0.776767 15.3982 1.27387 15.7434 1.63158 15.8814L1.89422 15.9827L10.8404 15.9965C17.2878 16.0064 19.8631 15.9958 20.0605 15.9583C20.4847 15.8777 20.962 15.6151 21.2978 15.2775C21.4583 15.1162 21.5895 14.9535 21.5895 14.916C21.5895 14.8784 21.4509 14.751 21.2814 14.6329C20.9321 14.3893 20.7164 14.2354 19.7181 13.5177C19.329 13.238 18.7745 12.841 18.4858 12.6356C16.9713 11.558 16.5789 11.2784 15.0168 10.1634C14.3767 9.70638 13.6578 9.19268 13.4193 9.02178C13.1808 8.85087 12.9636 8.69789 12.9365 8.68182C12.9095 8.6658 12.7041 8.75824 12.4801 8.88733C11.6147 9.38599 11.2003 9.57953 10.9977 9.57953C10.8072 9.57953 10.4065 9.38874 9.39839 8.81804L9.0975 8.64764L8.91913 8.77939Z"/>
	</symbol>

	<symbol viewBox="0 0 512 512" id="email-2">
		<path d="M41.3 65.5c-2.9.8-6.9 2.1-8.9 3-5.7 2.3-15.6 9.9-19.7 14.9-4.3 5.1-9.7 15-9.7 17.5 0 1 40.9 28.8 115.4 78.4 128 85.2 120.4 80.8 137.6 80.8 17.2 0 9.6 4.4 137.6-80.8 74.5-49.6 115.4-77.4 115.4-78.4 0-2.5-5.4-12.4-9.7-17.5-4.9-6.1-15-13.1-23.2-16.3l-6.6-2.6-211.5-.2c-179.2-.2-212.3 0-216.7 1.2z"/><path d="M0 268.2c0 144.6-.2 137.7 5.5 149.4 6 12.3 18.2 23.1 31.3 27.6l6.7 2.3h426l6.9-2.8c17.7-7.1 30.9-22.2 34.6-39.7.8-4 1-40.7.8-137.8l-.3-132.2-109 72.7c-60 39.9-111.3 73.7-114.1 75-18.1 8.3-41.8 8.7-61.9 1.2-3.9-1.5-42.7-26.7-115-74.9C51.6 169.1 1.9 136 1.3 135.6.3 135 0 161.8 0 268.2z"/>
	</symbol>

	<symbol viewBox="0 0 21 20" id="image">
		<path fill-rule="evenodd" clip-rule="evenodd" d="M1.8815 0.0620847C1.05951 0.240912 0.337376 0.90003 0.0896243 1.6976L0 1.98624V9.99926V18.0123L0.0896243 18.3009C0.270855 18.8842 0.716994 19.4171 1.26607 19.706C1.86459 20.0209 1.21517 20.0003 10.5084 19.9995C19.7444 19.9987 19.1014 20.0185 19.7083 19.7155C20.269 19.4356 20.7055 18.923 20.9029 18.3126L21 18.0123V9.99926V1.98624L20.9029 1.68588C20.7102 1.09029 20.2836 0.581681 19.7339 0.292515C19.135 -0.0225542 19.7884 -0.0020195 10.4714 0.00158739C3.50688 0.00433354 2.1015 0.0142115 1.8815 0.0620847ZM14.123 3.66762C14.7428 3.82788 15.3625 4.32141 15.6293 4.86732C16.1827 5.99951 15.7568 7.38878 14.6811 7.96002C13.3602 8.66147 11.7935 7.98744 11.3658 6.5337C11.2703 6.20912 11.2704 5.63325 11.366 5.30621C11.6013 4.50085 12.2549 3.86177 13.0406 3.66881C13.3524 3.59224 13.8295 3.59171 14.123 3.66762ZM7.71222 8.45338C7.78784 8.5049 7.98218 8.7216 8.14412 8.93498C8.30605 9.14836 8.56444 9.48897 8.71836 9.69185C8.87224 9.89474 9.06852 10.153 9.15458 10.2657C9.24065 10.3784 9.74788 11.0516 10.2818 11.7617C12.0279 14.0841 12.094 14.1637 12.3701 14.2803C12.5717 14.3655 12.9103 14.3595 13.1112 14.267C13.2124 14.2204 13.5119 13.9495 13.9002 13.5531C14.3286 13.1158 14.5835 12.8879 14.7081 12.8307C15.0519 12.673 15.4728 12.7485 15.7327 13.0145C15.7955 13.0788 16.1402 13.5563 16.4988 14.0758C16.8573 14.5952 17.2808 15.2047 17.4399 15.4301C18.565 17.0246 18.6494 17.1902 18.4931 17.4965C18.3564 17.7642 18.9305 17.7459 10.6744 17.7459H3.19346L3.01291 17.6536C2.77977 17.5345 2.67995 17.3487 2.70309 17.0767C2.72122 16.8635 2.79628 16.7051 4.2301 13.8521C4.655 13.0067 5.4112 11.491 5.91063 10.4837C6.69475 8.90227 6.84167 8.6325 6.98742 8.50609C7.13377 8.37919 7.18398 8.35977 7.36546 8.35977C7.5163 8.35977 7.61313 8.38592 7.71222 8.45338Z"/>
	</symbol>

	<symbol viewBox="0 0 292 292" id="cardiogram">
		<path fill="none" d="M254.9 173.7c-1.3 1.6-1.2 1.7.4.4.9-.7 1.7-1.5 1.7-1.7 0-.8-.8-.3-2.1 1.3zm-4 4c-1.3 1.6-1.2 1.7.4.4.9-.7 1.7-1.5 1.7-1.7 0-.8-.8-.3-2.1 1.3zm-4 4c-1.3 1.6-1.2 1.7.4.4.9-.7 1.7-1.5 1.7-1.7 0-.8-.8-.3-2.1 1.3zm-5.5 5.5-2.9 3.3 3.3-2.9c3-2.8 3.7-3.6 2.9-3.6-.2 0-1.6 1.5-3.3 3.2z"/><path fill-opacity=".1" d="M120.5 257c1 1.1 2 2 2.3 2 .3 0-.3-.9-1.3-2s-2-2-2.3-2c-.3 0 .3.9 1.3 2z"/><g stroke-width="0"><path d="M74.5 15C30.4 21.9-2.5 61.6.3 104.5c1 13.6 6.5 30.7 12.7 39.5l2.2 3 35.5-.2 35.5-.3L101 119c8.2-15.1 16.1-28.5 17.6-29.8 3.1-2.7 7.6-2.4 10.6.6.9.9 9.2 17.8 18.5 37.5 9.3 19.8 17.3 35.9 17.8 35.9s6-8 12.3-17.8c6.2-9.9 12.2-18.7 13.4-19.7 2.3-2 7.6-2.2 9.9-.4 1 .7 4.5 5.9 7.9 11.5l6.1 10.2H278l4.9-10.3c10.4-21.6 11.8-42.3 4.2-64.4-7-20.4-23.3-38.8-43.1-48.8-29.5-14.9-62.6-11.4-91.2 9.6l-6.6 4.9-7.9-5.6c-19.2-14-43.4-20.5-63.8-17.4z"/><path d="M110 138.3c-8.9 16.5-13.2 23.5-15 24.4-1.8.9-10.9 1.3-34.5 1.3h-32l56 56c30.7 30.7 57.2 56.5 58.7 57.1 2.1.9 3.5.9 5.6 0 1.5-.6 28-26.4 58.7-57.1l56-56h-27.3c-21.4 0-27.9-.3-30-1.4-1.5-.8-4.3-4.1-6.2-7.5-1.9-3.3-3.7-6.1-4-6-.3 0-5.9 8.6-12.5 19.1-6.6 10.5-13.1 19.9-14.4 20.9-3 2.4-7.3 2.4-9.9.1-1.1-.9-9.6-17.7-18.8-37.2-9.1-19.5-16.9-35.8-17.3-36.2-.3-.3-6.2 9.8-13.1 22.5z"/></g><path fill-opacity=".14" d="M160.9 266.7c-1.3 1.6-1.2 1.7.4.4 1.6-1.3 2.1-2.1 1.3-2.1-.2 0-1 .8-1.7 1.7z"/><path fill-opacity=".09" d="M125 261.4c0 .2.8 1 1.8 1.7 1.5 1.3 1.6 1.2.3-.4s-2.1-2.1-2.1-1.3z"/><path fill-opacity=".38" d="M44.2 163.7c8.7.2 22.9.2 31.6 0 8.6-.1 1.5-.3-15.8-.3s-24.4.2-15.8.3zm179.1 0c7.6.2 19.8.2 27 0 7.3-.1 1.1-.3-13.8-.3-14.8 0-20.8.2-13.2.3z"/><path fill-opacity=".11" d="M113 249.5c1.3 1.4 2.6 2.5 2.8 2.5.3 0-.5-1.1-1.8-2.5s-2.6-2.5-2.8-2.5c-.3 0 .5 1.1 1.8 2.5z"/><path fill-opacity=".13" d="M107 243.4c0 .2.8 1 1.8 1.7 1.5 1.3 1.6 1.2.3-.4s-2.1-2.1-2.1-1.3z"/><path fill-opacity=".28" d="M46 182.4c0 .2.8 1 1.8 1.7 1.5 1.3 1.6 1.2.3-.4s-2.1-2.1-2.1-1.3z"/><path fill-opacity=".42" d="M255.9 171.7c-1.3 1.6-1.2 1.7.4.4 1.6-1.3 2.1-2.1 1.3-2.1-.2 0-1 .8-1.7 1.7z"/><path fill-opacity=".19" d="M182.9 244.7c-1.3 1.6-1.2 1.7.4.4 1.6-1.3 2.1-2.1 1.3-2.1-.2 0-1 .8-1.7 1.7z"/>
	</symbol>

	<symbol viewBox="0 0 512 512" id="right-arrow">
		<path d="M378.5 133.6c-9.7 5-14 16.3-10 26.2 1.1 2.5 13.3 15.4 37.8 39.9l36.2 36.3H13.7l-4.3 2.5C3.1 242.2 0 248 0 256s3.1 13.8 9.4 17.5l4.3 2.5h428.8l-36.2 36.2c-24.5 24.6-36.7 37.5-37.8 40-3.4 8.3-.6 18.3 6.7 24.2 2.9 2.2 5.1 3 9.2 3.4 11.7.9 7.6 4.2 67.8-55.1 30.3-29.8 56.1-56 57.4-58.3 3.4-5.7 3.4-15.1 0-20.8-3-5.2-110.5-111.2-114.1-112.6-4-1.5-13.6-1.2-17 .6z"/>
	</symbol>

	<symbol viewBox="0 0 512 512" id="left-arrow">
		<path d="M115.7 133.4C111.3 135.8 5.1 240.9 2.4 245.6c-3.4 5.7-3.4 15.1 0 20.8 1.3 2.3 27.1 28.5 57.4 58.3 60.2 59.3 56.1 56 67.8 55.1 12.6-1.1 20.9-15.4 15.9-27.6-1.1-2.5-13.3-15.4-37.8-40L69.5 276h428.8l4.3-2.5c6.3-3.7 9.4-9.5 9.4-17.5s-3.1-13.8-9.4-17.5l-4.3-2.5H69.5l36.2-36.3c24.5-24.5 36.7-37.4 37.8-39.9 3.4-8.4.6-18.3-6.8-24.2-3.3-2.7-4.8-3.1-11-3.4-5.1-.2-8 .2-10 1.2z"/>
	</symbol>

	<symbol viewBox="0 0 512 512" id="refresh">
		<path d="M431 1.1c-3.3 1.3-6.8 4.7-8.8 8.4-1.5 2.6-1.8 8-2.2 38.2l-.5 35.2-10-8.6c-28-24-64.7-42.3-101.5-50.8-17.5-4-28.3-5-52.5-5-31.8 0-48 2.6-76.9 12.2-59.9 19.9-110.3 65-138.1 123.6-13.3 28.1-20.9 58.9-22.2 90.3-.6 14.3-.5 15.4 1.6 19.8 4.7 9.6 18 13.3 26.9 7.3 6.3-4.1 7.9-8.2 8.7-22.2 3-53.6 22.8-98.8 59-135 30.8-30.9 69.8-50.4 113.8-57.1 20.4-3.1 50.8-1.8 72.3 3.1 27.8 6.4 55.7 19.7 78.4 37.3 10.9 8.5 24.3 21.3 23.3 22.2-.4.4-19.3 6.9-42 14.4-39.6 13.2-41.3 13.9-44.7 17.6-4.6 5.1-6.1 10.8-4.6 16.8 2.3 9.1 8.7 14.2 17.7 14.2 6.7 0 118-37 122.4-40.7 6.6-5.6 6.4-2.9 6.7-65.7.3-59.3 0-64.2-3.9-69.7-4.2-5.9-15.4-8.8-22.9-5.8zm38.8 236.8c-4.4 1.5-8.7 5-10.7 8.9-1.4 2.7-2.1 7-2.6 15.7-3 53.6-22.8 98.8-59 135-30.8 30.9-69.8 50.4-113.8 57.1-20.4 3.1-50.8 1.8-72.3-3.1-27.8-6.4-55.7-19.7-78.4-37.3-10.9-8.5-24.3-21.3-23.3-22.2.4-.4 19.3-6.9 42-14.4 39.6-13.2 41.3-13.9 44.7-17.6 4.6-5.1 6.1-10.8 4.6-16.8-2.3-9.1-8.7-14.2-17.7-14.2-6.7 0-118 37-122.4 40.7-6.6 5.6-6.4 2.9-6.7 65.7-.3 59.3 0 64.2 3.9 69.7 5.7 8 20.5 9.4 27.7 2.6 5.6-5.2 5.7-5.4 6.2-43.4l.5-35.2 10 8.6c28 24 64.7 42.3 101.5 50.8 17.5 4 28.3 5 52.5 5 31.8 0 48-2.6 76.9-12.2 59.9-19.9 110.3-65 138.1-123.6 13.3-28.1 20.9-58.9 22.2-90.3.6-14.3.5-15.4-1.6-19.8-3.7-7.5-14.5-12.2-22.3-9.7z"/>
	</symbol>

	<symbol viewBox="0 0 512 512" id="play">
		<path d="M87 1.4C76 5.5 69.2 13.8 65.3 28c-1.7 6.2-1.8 18.4-1.8 228 0 209.4.1 221.9 1.8 228 2.4 8.8 5.3 14.2 10.3 19.4 11.4 11.9 33 11.5 54-1.1 10.9-6.6 288.4-196.4 296.1-202.6 16.7-13.4 25.2-32.6 22.3-51-2-13.6-10.9-27.9-22.8-37-12.4-9.4-291.7-200.1-298.7-203.9-10.6-5.6-18.4-7.8-28-7.7-4.4 0-9.6.6-11.5 1.3z"/>
	</symbol>

	<symbol viewBox="0 0 512 512" id="check">
		<path d="M449.7 47c-6.3 1.2-18.1 7.8-22.9 12.8-2.5 2.6-53.3 64.8-112.8 138.2-59.5 73.4-108.5 133.6-108.8 133.7-.4.1-26.8-33.8-58.7-75.4-31.9-41.5-59.7-77-61.8-78.8-5-4.3-14.7-9.4-21.1-11.1-18.9-5-41.4 2.4-52.9 17.6C2.4 195-.5 204.5.2 218.9c.5 10.1 3.2 18.5 7.9 25.3 4 5.8 152 198.1 156.7 203.6 19.8 23.6 57 24.3 77.2 1.5 2.3-2.7 4.9-6.2 5.8-7.8.8-1.7 58.4-73.2 128-158.9 69.6-85.8 127.7-157.8 129.2-160 5.3-8.1 6.5-13.1 6.5-26.1 0-10.5-.4-12.7-2.5-17.5-7.2-16.5-19.3-27.2-35.5-31.5-6.1-1.6-17.2-1.8-23.8-.5z"/>
	</symbol>

	<symbol viewBox="0 0 512 512" id="edit">
		<path d="M392.7 17.5c-2.1.8-5.2 2.4-7 3.6C381.5 24 345 60.2 345 61.5 345 62.9 449.2 167 450.6 167c.6 0 9.8-8.9 20.5-19.8 22.5-22.7 24.1-25.1 24.7-37.7.3-6.5 0-9.1-1.8-14-2.1-5.6-4.4-8.2-35.9-39.8-38.6-38.8-38.9-39-53.1-39.4-5.5-.2-9.8.3-12.3 1.2zM190.4 215.2C110.1 295.6 58.9 347.7 58.2 349.5c-4.5 11.9-33 96.3-37.2 110-4.2 13.6-5.1 17.9-4.8 22.1.8 9.9 7.5 15.1 18.2 14.1 10.6-.9 34.9-8.5 89.6-28.1 17.9-6.4 34.5-12.4 37-13.2 3.9-1.4 22.4-19.5 135.8-132.8C368.9 249.5 428 190.1 428 189.5 428 188.2 323.8 84 322.5 84c-.6 0-60 59.1-132.1 131.2z"/>
	</symbol>

	<symbol viewBox="0 0 512 512" id="copy">
		<path d="M102.9 33.4C91.3 36.6 79 46.3 72.7 57.1c-1.5 2.5-3.6 8.1-4.7 12.4-2 7.6-2 11.1-2 150.7 0 119.1.2 143.4 1.4 146.1 5.5 12.9 24.1 13.7 30 1.3 1.5-3.1 1.6-16.3 1.6-145.5 0-154.4-.3-145.9 5.3-151.9 5.6-6.1-2-5.7 117.9-6.2 108.7-.5 109.7-.5 112.5-2.6C338 59 342 51.7 342 48c0-4-4.2-11.3-7.9-13.7l-3.4-2.3-111.6.1c-86.7.1-112.6.4-116.2 1.3z"/><path d="M174.4 102.5c-16.5 3.6-28.9 14.4-35.5 31l-2.4 6-.3 148.3c-.2 130.5-.1 149 1.3 154.9 3.9 16.9 16.2 30.4 32.4 35.3 6.1 1.9 9.8 2 121.1 2 111.7 0 115-.1 121.1-2 8.2-2.5 12.8-5.4 19.4-11.9 6.5-6.5 11.1-14.9 13-23.8 2.2-10.3 2.2-293.8 0-303.1-4.5-19-18.5-32.8-37.4-36.8-9.5-2-223.4-1.9-232.7.1z"/>
	</symbol>

	<symbol viewBox="0 0 20 21" id="settings">
		<path d="M0.625 3.53543H10.1408C10.4276 4.84086 11.5934 5.8209 12.9837 5.8209C14.374 5.8209 15.5398 4.8409 15.8266 3.53543H19.375C19.7202 3.53543 20 3.25559 20 2.91043C20 2.56527 19.7202 2.28543 19.375 2.28543H15.8263C15.5389 0.980664 14.3716 0 12.9837 0C11.5951 0 10.4283 0.980508 10.1411 2.28543H0.625C0.279844 2.28543 0 2.56527 0 2.91043C0 3.25559 0.279844 3.53543 0.625 3.53543ZM11.3233 2.91207C11.3233 2.90984 11.3234 2.90758 11.3234 2.90535C11.3261 1.99258 12.0709 1.25004 12.9837 1.25004C13.8952 1.25004 14.6401 1.99156 14.644 2.90391L14.6441 2.91309C14.6427 3.82742 13.8984 4.57094 12.9837 4.57094C12.0694 4.57094 11.3254 3.82816 11.3233 2.91438L11.3233 2.91207ZM19.375 16.4839H15.8263C15.5389 15.1792 14.3716 14.1985 12.9837 14.1985C11.5951 14.1985 10.4283 15.179 10.1411 16.4839H0.625C0.279844 16.4839 0 16.7637 0 17.1089C0 17.4541 0.279844 17.7339 0.625 17.7339H10.1408C10.4276 19.0393 11.5934 20.0194 12.9837 20.0194C14.374 20.0194 15.5398 19.0393 15.8266 17.7339H19.375C19.7202 17.7339 20 17.4541 20 17.1089C20 16.7637 19.7202 16.4839 19.375 16.4839ZM12.9837 18.7694C12.0694 18.7694 11.3254 18.0266 11.3233 17.1128L11.3233 17.1105C11.3233 17.1083 11.3234 17.1061 11.3234 17.1038C11.3261 16.1911 12.0709 15.4485 12.9837 15.4485C13.8952 15.4485 14.6401 16.19 14.644 17.1023L14.6441 17.1115C14.6428 18.0259 13.8985 18.7694 12.9837 18.7694ZM19.375 9.38469H9.85918C9.57238 8.07926 8.4066 7.09926 7.01629 7.09926C5.62598 7.09926 4.4602 8.07926 4.1734 9.38469H0.625C0.279844 9.38469 0 9.66453 0 10.0097C0 10.3549 0.279844 10.6347 0.625 10.6347H4.17371C4.46109 11.9394 5.62844 12.9201 7.01629 12.9201C8.40488 12.9201 9.57172 11.9396 9.85895 10.6347H19.375C19.7202 10.6347 20 10.3549 20 10.0097C20 9.66453 19.7202 9.38469 19.375 9.38469ZM8.67668 10.008C8.67668 10.0103 8.67664 10.0125 8.67664 10.0148C8.67391 10.9275 7.9291 11.6701 7.01629 11.6701C6.10477 11.6701 5.35992 10.9286 5.35598 10.0162L5.35586 10.0071C5.35723 9.09266 6.10156 8.34926 7.01629 8.34926C7.93059 8.34926 8.67465 9.09199 8.67672 10.0058L8.67668 10.008Z"/>
	</symbol>

	<symbol viewBox="0 0 512 512" id="remove">
		<path d="M224 1.5c-45.6 5.7-89.1 23.7-126 52.3-11.7 9.1-31.6 28.7-41.3 40.7-26.3 32.6-44.1 70.5-52.1 111C1 223.6 0 235.1 0 256s1 32.4 4.6 50.5c10 50.9 34.7 96.2 72.5 133 30.3 29.6 64.6 49.9 104.3 61.9 24.3 7.4 46.8 10.6 74.6 10.6 20.9 0 32.4-1 50.5-4.6 39-7.7 75.5-24.4 107.5-49.2 11.7-9.1 31.6-28.7 41.3-40.7 26.3-32.6 44.1-70.5 52.1-111 3.6-18.1 4.6-29.6 4.6-50.5s-1-32.4-4.6-50.5c-7.7-39-24.4-75.5-49.2-107.5-9.1-11.7-28.7-31.6-40.7-41.3C397.9 40.9 372.4 26 349.7 17c-18.9-7.4-45.3-13.8-65.9-16-13.1-1.4-46.9-1.1-59.8.5zm67 40c38.5 6.9 70.7 21.3 100.1 44.6 36.3 28.9 63.7 70.6 74.8 113.9 5.7 22.6 6.5 29.4 6.5 56s-.8 33.4-6.5 56c-18.8 73.3-80.6 135.1-153.9 153.9-22.6 5.7-29.4 6.5-56 6.5s-33.4-.8-56-6.5c-43.3-11.1-85-38.5-113.9-74.8-23.3-29.4-37.8-61.9-44.6-100.1-2.2-12.9-3.1-42.7-1.6-57.1C50.5 132.7 129.6 52.4 231 40c11.8-1.4 48.9-.5 60 1.5z"/><path d="M165.5 156.9c-2.2 1-4.8 2.7-5.7 3.7-4.3 4.9-6.1 14.8-3.8 21.1.6 1.5 17.2 18.9 36.8 38.5l35.7 35.8-35.7 35.7c-19.6 19.7-36.2 37.1-36.8 38.6-2.4 6.7-.1 17.7 4.6 21.9 4.9 4.3 14.8 6.1 21.1 3.8 1.5-.6 18.9-17.2 38.6-36.8l35.7-35.7 35.8 35.7c19.6 19.6 37 36.2 38.5 36.8 6.3 2.3 16.2.5 21.1-3.8 4.7-4.2 7-15.2 4.6-21.9-.6-1.5-17.2-18.9-36.8-38.6L283.5 256l35.7-35.8c19.6-19.6 36.2-37 36.8-38.5 2.3-6.3.5-16.2-3.8-21.1-4.2-4.7-15.2-7-21.9-4.6-1.5.6-18.9 17.2-38.5 36.8L256 228.5l-35.7-35.7c-19.7-19.6-37.1-36.2-38.6-36.8-4.3-1.5-11.7-1.2-16.2.9z"/>
	</symbol>

	<symbol viewBox="0 0 512 512" id="trash">
		<path d="M206.2 43.9c-2.9 1-7 3.2-9 4.8-4.9 4-10.2 14.2-10.2 19.7 0 5.8-3.6 12.5-8 14.8-3.2 1.6-6.6 1.8-40.5 1.8-40.8 0-41.6.2-47.7 6.6-8.8 9.4-7.2 25.7 3.4 33l4.1 2.9h315.4l4.1-2.9c10.6-7.3 12.2-23.6 3.4-33-6.1-6.4-6.9-6.6-47.7-6.6-33.9 0-37.3-.2-40.5-1.8-4.4-2.3-8-9-8-14.8 0-6-5.3-15.9-10.8-20.1-8-6.1-9.8-6.3-58.6-6.3-40.1.1-44.6.2-49.4 1.9zM121.8 171c-7.5 2.3-13.7 9-15.2 16.5-.9 4.1 16 206.2 17.9 215 7.2 32.7 32.7 58.1 66 65.6 8.7 2 122.3 2 131 0 33.1-7.4 58.9-33 65.9-65.2 2-9.1 18.9-211.2 18-215.4-1.1-5.6-5.3-11.3-10.2-14.2l-4.7-2.8-133-.2c-73.1-.1-134.2.2-135.7.7z"/>
	</symbol>

	<symbol viewBox="0 0 512 521" id="refresh-2">
		<path d="M353.5 65.7c-6.4 3.3-10.7 9.2-11.9 16.3-.4 1.9.2 8.3 1.2 14.2 1.1 6 1.8 10.8 1.7 10.8-.1 0-4.9-2.2-10.6-4.9-62.3-29.2-135.2-20.6-190.4 22.4-10.6 8.2-26.3 24.8-34.8 36.6-8.1 11.3-19.3 33.2-23.6 46.1C68.2 257.9 73.3 312 99.2 357.3c20.4 35.7 53.7 64.2 92.8 79.3 18.6 7.1 35.9 10.4 58.6 11.1 21.6.7 33.9-.6 51.9-5.2 31.6-8.1 56.7-22.2 80.4-45 21.8-21 36.9-44.6 46-72.1 4-11.8 8.1-29.7 8.1-34.9 0-8.3-6.8-18-14.5-20.5-6.1-2-14.8-.9-19.7 2.6-5.7 4-8.3 8.9-10.2 19.5-9.6 52.6-51.1 96.1-103.6 108.7-37.2 9-76.7 1.9-108.8-19.5-11.1-7.4-27.3-23-35.2-34-7.7-10.8-17-29.8-20.5-41.8-15.9-55.2 3.7-114.4 49.4-148.8 23.2-17.5 48.4-26.3 78.2-27.4 24-.9 41 2.6 62.3 12.5l9.8 4.6-15.8 2.8c-13.1 2.2-16.5 3.2-19.8 5.5-11.7 8.3-11.6 27 .2 35.6 6.8 5 10.4 4.8 54.7-2.8 21.4-3.6 40.5-7.3 42.3-8.2 4.8-2.3 9.9-8.7 11.2-14.3 1-4.1.7-7.4-2.5-26.1-8.2-48.5-10.6-61.1-11.9-63.7-1.9-3.7-7.5-8.9-10.9-10.1-4.2-1.6-14.7-1.3-18.2.6z"/>
	</symbol>

	<symbol viewBox="0 0 512 512" id="user-2">
		<path d="M230 .6c-32.7 3.9-59.9 11.8-87.5 25.4C74.7 59.3 24.9 121.1 7 194.2 1.3 217.5.5 225 .5 256c0 31 .8 38.6 6.5 61.8 23.4 95 101 169.8 196.2 189.3 25.2 5.1 59.6 6.5 84.8 3.4C404 496.2 496.1 404 510.5 288c2-16.4 2-48.2 0-63.7-3.1-23.7-8.7-45.2-17-65.5-8.1-19.8-18.2-37.9-22.2-39.7-7.2-3.3-15.3 1.6-15.3 9.2 0 1.2 4.2 10.6 9.3 20.7 18.1 35.7 25.7 67.4 25.7 106.6 0 20.2-1.1 32.1-4.6 48.9-9.4 44.8-31.5 85.5-63.8 117.4-6.3 6.3-9.7 9-9.9 8-10.9-36.2-22-56.1-43.3-77.3C338.9 322 299.8 306 256 306c-43.8 0-82.9 16-113.4 46.6-21.3 21.2-32.4 41.1-43.3 77.3-.2 1-3.6-1.7-9.9-8C52.1 385 28 335.2 22 282.1c-1.8-15.3-.8-50.5 1.8-65.1 4.5-24.7 10.1-41.9 21.2-64.6C79.9 80.9 149.2 31.8 229.5 22c11.4-1.4 41.5-1.4 53.1 0 40.9 4.9 78.9 19.8 112.3 43.9 6.9 5 9.1 6.1 12.3 6.1 5.6 0 9.8-4.3 9.8-9.8 0-2.2-.3-4.8-.6-5.6-.4-.9-5.2-4.9-10.8-9-31.7-22.9-66.2-37.4-107.3-44.7C288.6 1.1 281.8.7 260 .5c-14.6-.2-28.1-.1-30 .1zm45.5 327.5c50.9 6.5 95.6 43.4 112.5 92.9 2 6 5.9 22 6 24.6 0 2.6-24.7 17.6-41.2 25-30.8 13.9-61.7 20.4-96.3 20.5-38.6 0-71.4-7.6-104.9-24.2-9.7-4.9-26.5-14.8-31.5-18.7l-2.3-1.9 1.7-8.3c12.5-61.1 64.3-106.6 126-110.8 11.3-.8 18.5-.6 30 .9z"/><path d="M432.6 84.6c-2.1 2.1-2.6 3.6-2.6 7.4 0 3.8.5 5.3 2.6 7.4 2.1 2.1 3.6 2.6 7.4 2.6 3.8 0 5.3-.5 7.4-2.6 2.1-2.1 2.6-3.6 2.6-7.4 0-3.8-.5-5.3-2.6-7.4-2.1-2.1-3.6-2.6-7.4-2.6-3.8 0-5.3.5-7.4 2.6zm-199.3 23.9c-31.9 8.2-56.8 33.3-64.9 65.2-3.4 13.5-3.4 31.1 0 44.6 8.2 32.1 33.2 57.1 65.3 65.3 13.5 3.4 31.1 3.4 44.6 0 32.1-8.2 57.1-33.2 65.3-65.3 3.4-13.5 3.4-31.1 0-44.6-8.2-32.2-33.1-57.1-65.3-65.3-13.4-3.4-31.7-3.3-45 .1zm38.5 20.1c12.3 2.6 22.3 8.3 32.8 18.8C319 161.9 325 176.2 325 196s-6 34-20.5 48.6c-14.3 14.3-28.8 20.5-48.5 20.5-19.6 0-34.2-6.2-48.6-20.5C193 230.1 187 215.8 187 196s6-34.1 20.4-48.6c18.2-18.1 38.7-24.1 64.4-18.8z"/>
	</symbol>

	<symbol viewBox="0 0 15 15" id="close">
		<path d="M8.42238 7.49997L14.7922 1.13013C14.8563 1.07038 14.9078 0.998329 14.9434 0.918271C14.9791 0.838214 14.9983 0.751792 14.9998 0.664161C15.0014 0.57653 14.9853 0.489485 14.9524 0.408219C14.9196 0.326953 14.8708 0.25313 14.8088 0.191156C14.7468 0.129182 14.673 0.0803251 14.5917 0.0475004C14.5105 0.0146757 14.4234 -0.00144458 14.3358 0.000101569C14.2481 0.00164772 14.1617 0.0208286 14.0817 0.0564996C14.0016 0.0921707 13.9296 0.143601 13.8698 0.207723L7.49997 6.57756L1.13013 0.207723C1.00641 0.0924395 0.842774 0.0296784 0.673694 0.0326617C0.504614 0.0356449 0.343292 0.10414 0.223716 0.223716C0.10414 0.343292 0.0356449 0.504614 0.0326617 0.673694C0.0296784 0.842774 0.0924395 1.00641 0.207723 1.13013L6.57756 7.49997L0.207723 13.8698C0.143601 13.9296 0.0921707 14.0016 0.0564996 14.0817C0.0208286 14.1617 0.00164772 14.2481 0.000101569 14.3358C-0.00144458 14.4234 0.0146757 14.5105 0.0475004 14.5917C0.0803251 14.673 0.129182 14.7468 0.191156 14.8088C0.25313 14.8708 0.326953 14.9196 0.408219 14.9524C0.489485 14.9853 0.57653 15.0014 0.664161 14.9998C0.751792 14.9983 0.838214 14.9791 0.918271 14.9434C0.998329 14.9078 1.07038 14.8563 1.13013 14.7922L7.49997 8.42238L13.8698 14.7922C13.9296 14.8563 14.0016 14.9078 14.0817 14.9434C14.1617 14.9791 14.2481 14.9983 14.3358 14.9998C14.4234 15.0014 14.5105 14.9853 14.5917 14.9524C14.673 14.9196 14.7468 14.8708 14.8088 14.8088C14.8708 14.7468 14.9196 14.673 14.9524 14.5917C14.9853 14.5105 15.0014 14.4234 14.9998 14.3358C14.9983 14.2481 14.9791 14.1617 14.9434 14.0817C14.9078 14.0016 14.8563 13.9296 14.7922 13.8698L8.42238 7.49997Z"/>
	</symbol>
	
</svg>