<svg width="145" height="86" viewBox="0 0 145 86" fill="none" xmlns="http://www.w3.org/2000/svg">
<path d="M59.7625 77.3793C64.3904 73.0652 65.103 66.308 61.3542 62.2865C57.6055 58.2651 50.8149 58.5022 46.1871 62.8162C41.5592 67.1302 40.8466 73.8875 44.5954 77.909C48.3441 81.9304 55.1347 81.6933 59.7625 77.3793Z" fill="#00DAE3"/>
<path d="M120.996 77.3836C125.624 73.0696 126.336 66.3124 122.588 62.2909C118.839 58.2694 112.048 58.5066 107.42 62.8206C102.793 67.1346 102.08 73.8919 105.829 77.9133C109.578 81.9348 116.368 81.6977 120.996 77.3836Z" fill="#00DAE3"/>
<path d="M11.2026 24.5798C11.2026 21.9092 9.03762 19.7441 6.36694 19.7441C3.69626 19.7441 1.53125 21.9092 1.53125 24.5798C1.53125 27.2505 3.69626 29.4155 6.36694 29.4155C9.03762 29.4155 11.2026 27.2505 11.2026 24.5798Z" fill="#00DAE3"/>
<path d="M98.1238 69.0866C99.8429 60.5905 107.869 53.839 116.495 53.839C124.802 53.839 130.788 60.1006 130.624 68.1521C139.607 68.3871 142.108 56.5577 142.108 56.5577C142.864 53.2499 143.994 46.8014 144.94 40.4718C145.25 38.5176 145.012 36.5156 144.252 34.6888C141.904 29.2071 139.066 23.9484 135.773 18.9767C132.658 14.3293 127.433 11.5766 121.468 11.4774C117.911 11.4208 114.419 11.3868 111.783 11.3868L111.76 11.3642C111.42 5.67744 107.274 1.32178 101.454 0.800683C97.6679 0.463671 82.6694 0.217285 75.4704 0.217285C72.6101 0.217285 68.5064 0.256933 64.3547 0.324902V0.30791H14.4033C13.768 0.307538 13.1388 0.432398 12.5518 0.675353C11.9648 0.918309 11.4314 1.27459 10.9821 1.72383C10.5329 2.17308 10.1766 2.70646 9.93366 3.2935C9.6907 3.88053 9.56584 4.5097 9.56621 5.14502V5.16768C9.56621 6.44455 10.0734 7.66912 10.9763 8.57201C11.8792 9.47489 13.1038 9.98213 14.3807 9.98213H24.4429C25.6545 10.0715 26.7875 10.6156 27.6148 11.5053C28.442 12.3951 28.9023 13.5647 28.9033 14.7796V14.8051C28.9052 15.441 28.7816 16.0711 28.5397 16.6592C28.2978 17.2473 27.9423 17.782 27.4936 18.2326C27.0448 18.6832 26.5116 19.0409 25.9245 19.2852C25.3374 19.5295 24.7078 19.6556 24.0719 19.6563H18.9119C17.6298 19.6563 16.4002 20.1657 15.4936 21.0723C14.587 21.9789 14.0776 23.2085 14.0776 24.4906C14.0773 25.1257 14.202 25.7546 14.4448 26.3415C14.6876 26.9283 15.0436 27.4616 15.4926 27.9108C15.9415 28.36 16.4746 28.7164 17.0613 28.9595C17.648 29.2026 18.2768 29.3277 18.9119 29.3277H24.0719C25.3548 29.3277 26.5851 29.8374 27.4922 30.7445C28.3994 31.6516 28.909 32.882 28.909 34.1648C28.909 35.4477 28.3994 36.6781 27.4922 37.5852C26.5851 38.4923 25.3548 39.002 24.0719 39.002H4.76875C3.48636 39.002 2.25645 39.5112 1.3494 40.4177C0.442345 41.3242 -0.0676086 42.5538 -0.0683594 43.8362C-0.0683594 45.1191 0.441263 46.3494 1.3484 47.2566C2.25553 48.1637 3.48587 48.6733 4.76875 48.6733H24.0719C25.3548 48.6733 26.5851 49.183 27.4922 50.0901C28.3994 50.9972 28.909 52.2276 28.909 53.5104C28.9075 54.7923 28.3972 56.0212 27.4902 56.9271C26.5833 57.833 25.3538 58.3419 24.0719 58.3419H18.102C16.8198 58.3419 15.5902 58.8512 14.6836 59.7578C13.777 60.6644 13.2677 61.894 13.2677 63.1762C13.2677 64.4586 13.7769 65.6885 14.6834 66.5955C15.59 67.5026 16.8196 68.0125 18.102 68.0133L37.1502 67.9991L38.7333 64.0541C41.976 58.0729 48.4273 53.8361 55.2582 53.8361C63.8874 53.8361 70.0159 60.5934 69.3419 69.0951H98.121M50.1464 21.9078H43.6554C43.6492 21.9083 43.6434 21.9108 43.6388 21.9149C43.6342 21.919 43.6311 21.9244 43.6299 21.9305L43.0323 26.1785C43.0314 26.1819 43.0314 26.1855 43.0321 26.1889C43.0328 26.1924 43.0344 26.1956 43.0366 26.1983C43.0388 26.2011 43.0416 26.2033 43.0448 26.2048C43.048 26.2062 43.0515 26.2069 43.055 26.2068H47.8864C48.1236 26.2001 48.3592 26.2464 48.5762 26.3423C48.7932 26.4382 48.9861 26.5813 49.1408 26.7612C49.2954 26.9411 49.408 27.1532 49.4703 27.3822C49.5325 27.6111 49.5429 27.851 49.5007 28.0845C49.4179 28.5976 49.1588 29.0658 48.768 29.4085C48.3773 29.7512 47.8792 29.947 47.3597 29.9621H42.5226C42.5167 29.962 42.5109 29.9639 42.5063 29.9675C42.5016 29.9711 42.4984 29.9762 42.4971 29.9819L41.6305 36.1529C41.5477 36.6661 41.2886 37.1343 40.8978 37.477C40.507 37.8197 40.009 38.0155 39.4895 38.0306C39.2524 38.0374 39.0168 37.9912 38.7999 37.8952C38.583 37.7993 38.3903 37.6562 38.2358 37.4762C38.0813 37.2962 37.9691 37.084 37.9072 36.855C37.8453 36.6261 37.8353 36.3862 37.878 36.1529L40.1267 20.1463C40.2158 19.6044 40.4905 19.1103 40.9038 18.7486C41.3171 18.387 41.8433 18.1802 42.3923 18.1639H50.6703C50.9074 18.157 51.143 18.2033 51.3599 18.2992C51.5768 18.3951 51.7695 18.5383 51.924 18.7183C52.0784 18.8982 52.1907 19.1104 52.2526 19.3394C52.3145 19.5683 52.3245 19.8082 52.2817 20.0415C52.1978 20.5521 51.9388 21.0176 51.5492 21.3581C51.1596 21.6986 50.6636 21.893 50.1464 21.9078ZM67.4954 19.4383C68.1697 20.0366 68.6442 20.8274 68.8548 21.7039C69.0902 22.6969 69.1287 23.7264 68.9681 24.7342C68.7711 26.3023 68.1294 27.7813 67.1188 28.9964C66.5016 29.7261 65.7176 30.2963 64.8333 30.6588C64.8293 30.663 64.8271 30.6686 64.8271 30.6744C64.8271 30.6802 64.8293 30.6857 64.8333 30.6899L66.4419 35.3316C66.8752 36.5777 65.7622 38.0306 64.3773 38.0306H64.2867C63.9507 38.0404 63.6203 37.9431 63.3434 37.7527C63.0664 37.5623 62.8572 37.2886 62.7461 36.9714L60.8005 31.3073C60.7977 31.3031 60.7939 31.2995 60.7895 31.2971C60.7851 31.2946 60.7801 31.2933 60.775 31.2932H56.6402C56.6345 31.2935 56.6289 31.2955 56.6244 31.2991C56.6198 31.3026 56.6165 31.3075 56.6147 31.313L55.9351 36.1501C55.8523 36.6632 55.5932 37.1315 55.2024 37.4742C54.8116 37.8169 54.3136 38.0126 53.794 38.0277C53.557 38.0346 53.3214 37.9883 53.1045 37.8924C52.8876 37.7965 52.6949 37.6533 52.5404 37.4733C52.3859 37.2934 52.2737 37.0812 52.2118 36.8522C52.1499 36.6233 52.1399 36.3834 52.1826 36.1501L54.4313 20.1435C54.5204 19.6015 54.7951 19.1074 55.2084 18.7458C55.6217 18.3841 56.1479 18.1774 56.6969 18.161H63.0973C63.0973 18.161 65.9066 18.0732 67.4954 19.4383ZM85.1106 19.9084C85.0337 20.3877 84.7918 20.8251 84.4268 21.1451C84.0618 21.4652 83.5965 21.6478 83.1112 21.6614H75.6658C75.6601 21.6617 75.6545 21.6638 75.65 21.6673C75.6454 21.6709 75.6421 21.6757 75.6403 21.6813L75.0484 25.884C75.0476 25.8874 75.0475 25.891 75.0482 25.8944C75.0489 25.8978 75.0505 25.9011 75.0527 25.9038C75.0549 25.9066 75.0577 25.9088 75.0609 25.9102C75.0641 25.9117 75.0676 25.9124 75.0711 25.9123H80.8541C81.0756 25.9058 81.2957 25.9488 81.4984 26.0382C81.7011 26.1277 81.8812 26.2613 82.0257 26.4294C82.1701 26.5974 82.2751 26.7956 82.3331 27.0094C82.3911 27.2233 82.4005 27.4474 82.3607 27.6653C82.2838 28.1446 82.0419 28.582 81.6769 28.9021C81.3119 29.2221 80.8466 29.4047 80.3613 29.4184H74.5755C74.5697 29.4187 74.5642 29.4207 74.5596 29.4243C74.5551 29.4278 74.5517 29.4327 74.55 29.4382L73.8392 34.4962C73.8391 34.5032 73.8417 34.51 73.8464 34.5153C73.8511 34.5205 73.8576 34.5238 73.8646 34.5245H81.3044C81.5259 34.518 81.746 34.561 81.9487 34.6504C82.1514 34.7399 82.3315 34.8735 82.4759 35.0416C82.6204 35.2096 82.7254 35.4078 82.7834 35.6216C82.8414 35.8355 82.8508 36.0596 82.811 36.2775C82.7341 36.7568 82.4922 37.1943 82.1272 37.5143C81.7622 37.8343 81.2969 38.0169 80.8116 38.0306H71.5792C71.3301 38.0341 71.0833 37.9827 70.8562 37.8802C70.6291 37.7777 70.4274 37.6265 70.2653 37.4373C70.1031 37.2482 69.9846 37.0257 69.918 36.7856C69.8514 36.5456 69.8384 36.2938 69.88 36.0481L72.1145 20.1548C72.2036 19.6129 72.4783 19.1188 72.8916 18.7571C73.3049 18.3955 73.8311 18.1887 74.3801 18.1724H83.6097C83.829 18.1672 84.0467 18.2105 84.2472 18.2994C84.4478 18.3883 84.6262 18.5204 84.7697 18.6863C84.9131 18.8523 85.0181 19.0479 85.077 19.2592C85.136 19.4704 85.1475 19.6922 85.1106 19.9084ZM100.576 19.9084C100.499 20.3877 100.258 20.8251 99.8925 21.1451C99.5275 21.4652 99.0622 21.6478 98.5769 21.6614H91.1315C91.1258 21.6617 91.1202 21.6638 91.1157 21.6673C91.1111 21.6709 91.1078 21.6757 91.1061 21.6813L90.517 25.884C90.5161 25.8874 90.516 25.891 90.5168 25.8944C90.5175 25.8978 90.519 25.9011 90.5212 25.9038C90.5234 25.9066 90.5262 25.9088 90.5294 25.9102C90.5326 25.9117 90.5361 25.9124 90.5396 25.9123H96.3227C96.5441 25.9058 96.7643 25.9488 96.967 26.0382C97.1697 26.1277 97.3498 26.2613 97.4942 26.4294C97.6386 26.5974 97.7437 26.7956 97.8016 27.0094C97.8596 27.2233 97.8691 27.4474 97.8293 27.6653C97.7523 28.1446 97.5105 28.582 97.1454 28.9021C96.7804 29.2221 96.3151 29.4047 95.8299 29.4184H90.0412C90.0354 29.4187 90.0299 29.4207 90.0254 29.4243C90.0208 29.4278 90.0174 29.4327 90.0157 29.4382L89.3049 34.4962C89.3048 34.5032 89.3074 34.51 89.3121 34.5153C89.3169 34.5205 89.3234 34.5238 89.3304 34.5245H96.7701C96.9916 34.518 97.2117 34.561 97.4144 34.6504C97.6171 34.7399 97.7973 34.8735 97.9417 35.0416C98.0861 35.2096 98.1911 35.4078 98.2491 35.6216C98.3071 35.8355 98.3165 36.0596 98.2768 36.2775C98.1998 36.7568 97.9579 37.1943 97.5929 37.5143C97.2279 37.8343 96.7626 38.0169 96.2773 38.0306H87.0449C86.7958 38.0341 86.549 37.9827 86.3219 37.8802C86.0949 37.7777 85.8931 37.6265 85.731 37.4373C85.5688 37.2482 85.4503 37.0257 85.3837 36.7856C85.3171 36.5456 85.3041 36.2938 85.3457 36.0481L87.5802 20.1548C87.6693 19.6129 87.944 19.1188 88.3573 18.7571C88.7706 18.3955 89.2968 18.1887 89.8458 18.1724H99.0754C99.2947 18.1672 99.5124 18.2105 99.713 18.2994C99.9135 18.3883 100.092 18.5204 100.235 18.6863C100.379 18.8523 100.484 19.0479 100.543 19.2592C100.602 19.4704 100.613 19.6922 100.576 19.9084ZM111.338 18.0931C113.867 18.0931 117.141 18.1271 120.426 18.1809C124.408 18.246 127.891 20.0755 129.981 23.1964C132.214 26.562 134.22 30.0719 135.988 33.7032C136.923 35.6063 135.204 38.0844 132.952 38.0844H108.809L111.338 18.0931Z" fill="#00DAE3"/>
<path d="M100.576 19.9084C100.499 20.3877 100.258 20.8251 99.8925 21.1451C99.5275 21.4652 99.0622 21.6478 98.5769 21.6614H91.1315C91.1258 21.6617 91.1202 21.6638 91.1157 21.6673C91.1111 21.6709 91.1078 21.6757 91.1061 21.6813L90.517 25.884C90.5161 25.8874 90.516 25.891 90.5168 25.8944C90.5175 25.8978 90.519 25.9011 90.5212 25.9038C90.5234 25.9066 90.5262 25.9088 90.5294 25.9102C90.5326 25.9117 90.5361 25.9124 90.5396 25.9123H96.3227C96.5441 25.9058 96.7643 25.9488 96.967 26.0382C97.1697 26.1277 97.3498 26.2613 97.4942 26.4294C97.6386 26.5974 97.7437 26.7956 97.8016 27.0094C97.8596 27.2233 97.8691 27.4474 97.8293 27.6653C97.7523 28.1446 97.5105 28.582 97.1454 28.9021C96.7804 29.2221 96.3151 29.4047 95.8299 29.4184H90.0412C90.0354 29.4187 90.0299 29.4207 90.0254 29.4243C90.0208 29.4278 90.0174 29.4327 90.0157 29.4382L89.3049 34.4962C89.3048 34.5032 89.3074 34.51 89.3121 34.5153C89.3169 34.5205 89.3234 34.5238 89.3304 34.5245H96.7701C96.9916 34.518 97.2117 34.561 97.4144 34.6504C97.6171 34.7399 97.7973 34.8735 97.9417 35.0416C98.0861 35.2096 98.1911 35.4078 98.2491 35.6216C98.3071 35.8355 98.3165 36.0596 98.2768 36.2775C98.1998 36.7568 97.9579 37.1943 97.5929 37.5143C97.2279 37.8343 96.7626 38.0169 96.2773 38.0306H87.0449C86.7958 38.0341 86.549 37.9827 86.3219 37.8802C86.0949 37.7777 85.8931 37.6265 85.731 37.4373C85.5688 37.2482 85.4503 37.0257 85.3837 36.7856C85.3171 36.5456 85.3041 36.2938 85.3457 36.0481L87.5802 20.1548C87.6693 19.6129 87.944 19.1188 88.3573 18.7571C88.7706 18.3955 89.2968 18.1887 89.8458 18.1724H99.0754C99.2947 18.1672 99.5124 18.2105 99.713 18.2994C99.9135 18.3883 100.092 18.5204 100.235 18.6863C100.379 18.8523 100.484 19.0479 100.543 19.2592C100.602 19.4704 100.613 19.6922 100.576 19.9084Z" fill="#00DAE3"/>
<path d="M85.1106 19.9084C85.0337 20.3877 84.7918 20.8251 84.4268 21.1451C84.0618 21.4652 83.5965 21.6478 83.1112 21.6614H75.6658C75.6601 21.6617 75.6545 21.6638 75.65 21.6673C75.6454 21.6709 75.6421 21.6757 75.6403 21.6813L75.0484 25.884C75.0476 25.8874 75.0475 25.891 75.0482 25.8944C75.0489 25.8978 75.0505 25.9011 75.0527 25.9038C75.0549 25.9066 75.0577 25.9088 75.0609 25.9102C75.0641 25.9117 75.0676 25.9124 75.0711 25.9123H80.8541C81.0756 25.9058 81.2957 25.9488 81.4984 26.0382C81.7011 26.1277 81.8812 26.2613 82.0257 26.4294C82.1701 26.5974 82.2751 26.7956 82.3331 27.0094C82.3911 27.2233 82.4005 27.4474 82.3607 27.6653C82.2838 28.1446 82.0419 28.582 81.6769 28.9021C81.3119 29.2221 80.8466 29.4047 80.3613 29.4184H74.5755C74.5697 29.4187 74.5642 29.4207 74.5596 29.4243C74.5551 29.4278 74.5517 29.4327 74.55 29.4382L73.8392 34.4962C73.8391 34.5032 73.8417 34.51 73.8464 34.5153C73.8511 34.5205 73.8576 34.5238 73.8646 34.5245H81.3044C81.5259 34.518 81.746 34.561 81.9487 34.6504C82.1514 34.7399 82.3315 34.8735 82.4759 35.0416C82.6204 35.2096 82.7254 35.4078 82.7834 35.6216C82.8414 35.8355 82.8508 36.0596 82.811 36.2775C82.7341 36.7568 82.4922 37.1943 82.1272 37.5143C81.7622 37.8343 81.2969 38.0169 80.8116 38.0306H71.5792C71.3301 38.0341 71.0833 37.9827 70.8562 37.8802C70.6291 37.7777 70.4274 37.6265 70.2653 37.4373C70.1031 37.2482 69.9846 37.0257 69.918 36.7856C69.8514 36.5456 69.8384 36.2938 69.88 36.0481L72.1145 20.1548C72.2036 19.6129 72.4783 19.1188 72.8916 18.7571C73.3049 18.3955 73.8311 18.1887 74.3801 18.1724H83.6097C83.829 18.1672 84.0467 18.2105 84.2472 18.2994C84.4478 18.3883 84.6262 18.5204 84.7697 18.6863C84.9131 18.8523 85.0181 19.0479 85.077 19.2592C85.136 19.4704 85.1475 19.6922 85.1106 19.9084Z" fill="#00DAE3"/>
<path d="M67.4954 19.4383C68.1697 20.0366 68.6442 20.8274 68.8548 21.7039C69.0902 22.6969 69.1287 23.7264 68.9681 24.7342C68.7711 26.3023 68.1294 27.7813 67.1188 28.9964C66.5016 29.7261 65.7176 30.2963 64.8333 30.6588C64.8293 30.663 64.8271 30.6686 64.8271 30.6744C64.8271 30.6802 64.8293 30.6857 64.8333 30.6899L66.4419 35.3316C66.8752 36.5777 65.7622 38.0306 64.3773 38.0306H64.2867C63.9507 38.0404 63.6203 37.9431 63.3434 37.7527C63.0664 37.5623 62.8572 37.2886 62.7461 36.9714L60.8005 31.3073C60.7977 31.3031 60.7939 31.2995 60.7895 31.2971C60.7851 31.2946 60.7801 31.2933 60.775 31.2932H56.6402C56.6345 31.2935 56.6289 31.2955 56.6244 31.2991C56.6198 31.3026 56.6165 31.3075 56.6147 31.313L55.9351 36.1501C55.8523 36.6632 55.5932 37.1315 55.2024 37.4742C54.8116 37.8169 54.3136 38.0126 53.794 38.0277C53.557 38.0346 53.3214 37.9883 53.1045 37.8924C52.8876 37.7965 52.6949 37.6533 52.5404 37.4733C52.3859 37.2934 52.2737 37.0812 52.2118 36.8522C52.1499 36.6233 52.1399 36.3834 52.1826 36.1501L54.4313 20.1435C54.5204 19.6015 54.7951 19.1074 55.2084 18.7458C55.6217 18.3841 56.1479 18.1774 56.6969 18.161H63.0973C63.0973 18.161 65.9066 18.0732 67.4954 19.4383Z" fill="#00DAE3"/>
<path d="M50.1464 21.9078H43.6554C43.6492 21.9083 43.6434 21.9108 43.6388 21.9149C43.6342 21.919 43.6311 21.9244 43.6299 21.9305L43.0323 26.1785C43.0314 26.1819 43.0314 26.1855 43.0321 26.1889C43.0328 26.1924 43.0344 26.1956 43.0366 26.1983C43.0388 26.2011 43.0416 26.2033 43.0448 26.2048C43.048 26.2062 43.0515 26.2069 43.055 26.2068H47.8864C48.1236 26.2001 48.3592 26.2464 48.5762 26.3423C48.7932 26.4382 48.9861 26.5813 49.1408 26.7612C49.2954 26.9411 49.408 27.1532 49.4703 27.3822C49.5325 27.6111 49.5429 27.851 49.5007 28.0845C49.4179 28.5976 49.1588 29.0658 48.768 29.4085C48.3773 29.7512 47.8792 29.947 47.3597 29.9621H42.5226C42.5167 29.962 42.5109 29.9639 42.5063 29.9675C42.5016 29.9711 42.4984 29.9762 42.4971 29.9819L41.6305 36.1529C41.5477 36.6661 41.2886 37.1343 40.8978 37.477C40.507 37.8197 40.009 38.0155 39.4895 38.0306C39.2524 38.0374 39.0168 37.9912 38.7999 37.8952C38.583 37.7993 38.3903 37.6562 38.2358 37.4762C38.0813 37.2962 37.9691 37.084 37.9072 36.855C37.8453 36.6261 37.8353 36.3862 37.878 36.1529L40.1267 20.1463C40.2158 19.6044 40.4905 19.1103 40.9038 18.7486C41.3171 18.387 41.8433 18.1802 42.3923 18.1639H50.6703C50.9074 18.157 51.143 18.2033 51.3599 18.2992C51.5768 18.3951 51.7695 18.5383 51.924 18.7183C52.0784 18.8982 52.1907 19.1104 52.2526 19.3394C52.3145 19.5683 52.3245 19.8082 52.2817 20.0415C52.1978 20.5521 51.9388 21.0176 51.5492 21.3581C51.1596 21.6986 50.6636 21.893 50.1464 21.9078Z" fill="#00DAE3"/>
<path d="M61.582 27.79H57.1074L57.957 21.6615H62.4288C62.4288 21.6615 65.7111 21.4491 65.173 24.7257C65.1872 24.7257 64.8105 27.79 61.582 27.79Z" fill="#00DAE3"/>
</svg>
