<svg width="29" height="34" viewBox="0 0 29 34" fill="none" xmlns="http://www.w3.org/2000/svg">
<path d="M4.95658 9.76403C5.05799 9.86427 5.19503 9.92017 5.33761 9.91946C5.4802 9.91876 5.61668 9.8615 5.71708 9.76026L10.2903 5.14127C10.3427 5.09167 10.3845 5.03206 10.4134 4.96598C10.4422 4.8999 10.4575 4.8287 10.4583 4.7566C10.4591 4.6845 10.4454 4.61298 10.418 4.54627C10.3906 4.47957 10.3501 4.41904 10.2989 4.36829C10.2477 4.31754 10.1868 4.2776 10.1199 4.25084C10.0529 4.22408 9.98126 4.21104 9.90917 4.21251C9.83708 4.21397 9.76602 4.22991 9.70021 4.25937C9.63439 4.28882 9.57517 4.33121 9.52606 4.38399L4.95228 9.00299C4.85187 9.10442 4.79587 9.24157 4.79657 9.38429C4.79728 9.52701 4.85518 9.6636 4.95658 9.76403ZM7.7607 9.10148C7.76059 9.42615 7.85677 9.74357 8.03706 10.0136C8.21734 10.2836 8.47365 10.4941 8.77357 10.6184C9.07349 10.7428 9.40354 10.7754 9.72199 10.7122C10.0404 10.6489 10.333 10.4927 10.5627 10.2632C10.7923 10.0337 10.9487 9.74121 11.0122 9.4228C11.0756 9.10439 11.0432 8.77432 10.9191 8.47432C10.7949 8.17432 10.5846 7.91787 10.3147 7.73741C10.0448 7.55694 9.72748 7.46056 9.40281 7.46045C8.96761 7.46102 8.5504 7.63416 8.24267 7.94189C7.93494 8.24962 7.76181 8.66683 7.76124 9.10202L7.7607 9.10148ZM9.96847 9.10148C9.96858 9.21328 9.93553 9.32259 9.87349 9.4156C9.81146 9.50861 9.72324 9.58112 9.61998 9.62398C9.51673 9.66683 9.40308 9.6781 9.29342 9.65636C9.18376 9.63461 9.08302 9.58083 9.00393 9.50182C8.92484 9.42281 8.87096 9.32211 8.84911 9.21247C8.82726 9.10283 8.83842 8.98917 8.88118 8.88588C8.92394 8.78258 8.99637 8.69429 9.08932 8.63217C9.18227 8.57005 9.29155 8.53689 9.40334 8.53689C9.55314 8.53718 9.69672 8.59681 9.80264 8.70273C9.90856 8.80865 9.96819 8.95169 9.96847 9.10148ZM5.51471 7.04656C5.83932 7.04635 6.15657 6.94991 6.42637 6.76942C6.69617 6.58894 6.90641 6.33252 7.03051 6.03257C7.1546 5.73263 7.18699 5.40263 7.12357 5.08428C7.06015 4.76593 6.90378 4.47353 6.67421 4.24404C6.44464 4.01455 6.15219 3.85827 5.83383 3.79496C5.51546 3.73164 5.18547 3.76414 4.88556 3.88833C4.58566 4.01253 4.32931 4.22285 4.14891 4.49271C3.96852 4.76257 3.87218 5.07986 3.87207 5.40446C3.87264 5.83984 4.04592 6.25721 4.35388 6.56497C4.66185 6.87273 5.07933 7.04574 5.51471 7.04602V7.04656ZM5.51471 4.83879C5.62644 4.839 5.7356 4.87233 5.82839 4.93455C5.92118 4.99678 5.99345 5.08512 6.03606 5.1884C6.07867 5.29168 6.0897 5.40528 6.06778 5.51483C6.04585 5.62438 5.99194 5.72498 5.91286 5.80391C5.83379 5.88283 5.73309 5.93655 5.62349 5.95827C5.5139 5.97999 5.40032 5.96873 5.29712 5.92593C5.19392 5.88312 5.10572 5.81069 5.04368 5.71778C4.98163 5.62486 4.94851 5.51565 4.94851 5.40392C4.94879 5.25394 5.00857 5.1102 5.11473 5.00425C5.22088 4.8983 5.36473 4.83879 5.51471 4.83879Z" fill="url(#paint0_linear_304_3775)"/>
<path d="M7.34566 14.6988C8.25365 14.6994 9.15368 14.5296 9.99908 14.1983C10.096 14.4028 10.1982 14.6074 10.3059 14.8011C11.2993 16.5953 12.8218 18.0395 14.6659 18.9369C16.51 19.8343 18.586 20.1412 20.6109 19.8158C22.6358 19.4904 24.5111 18.5486 25.9812 17.1186C27.4513 15.6887 28.4447 13.8402 28.8261 11.8251C29.2074 9.81005 28.9582 7.72638 28.1122 5.85813C27.2663 3.98987 25.8648 2.42791 24.0988 1.38513C22.3329 0.342354 20.2883 -0.130518 18.2438 0.0309649C16.1994 0.192448 14.2544 0.980431 12.674 2.28752H12.6686C11.8305 1.40677 10.7868 0.747811 9.6313 0.369725C8.47575 -0.00836168 7.24444 -0.0937525 6.04777 0.12121C4.8511 0.336172 3.72648 0.844766 2.77477 1.60139C1.82306 2.35801 1.074 3.339 0.594776 4.45639C0.115546 5.57378 -0.0788741 6.79265 0.0289482 8.00368C0.13677 9.21472 0.543464 10.3801 1.21256 11.3952C1.88166 12.4104 2.79224 13.2436 3.86265 13.8202C4.93306 14.3968 6.12984 14.6987 7.34566 14.6988ZM18.4884 6.08573V5.12555C18.4884 4.9828 18.5451 4.8459 18.646 4.74497C18.747 4.64403 18.8839 4.58733 19.0266 4.58733C19.1694 4.58733 19.3063 4.64403 19.4072 4.74497C19.5081 4.8459 19.5648 4.9828 19.5648 5.12555V6.09703C20.2924 6.128 20.9876 6.40614 21.5358 6.88552C21.6304 6.99244 21.6787 7.13257 21.6701 7.27509C21.6614 7.41761 21.5964 7.55085 21.4895 7.64549C21.3826 7.74013 21.2425 7.78842 21.0999 7.77974C20.9574 7.77106 20.8242 7.70612 20.7295 7.5992C20.2016 7.00178 17.0476 6.73751 17.0476 8.32741C17.0476 9.06047 17.3377 9.43238 18.9222 9.43238C20.0272 9.43238 22.0832 9.43238 22.0832 11.6122C22.0832 12.6994 21.3173 13.6725 19.5648 13.8533V14.8151C19.5648 14.9578 19.5081 15.0947 19.4072 15.1957C19.3063 15.2966 19.1694 15.3533 19.0266 15.3533C18.8839 15.3533 18.747 15.2966 18.646 15.1957C18.5451 15.0947 18.4884 14.9578 18.4884 14.8151V13.8538C17.7107 13.8198 16.9742 13.4948 16.4249 12.9432C16.3817 12.8872 16.3499 12.8233 16.3314 12.755C16.3129 12.6867 16.308 12.6155 16.317 12.5454C16.326 12.4752 16.3488 12.4075 16.3839 12.3462C16.4191 12.2848 16.466 12.231 16.522 12.1878C16.578 12.1446 16.6419 12.1128 16.7102 12.0943C16.7785 12.0758 16.8497 12.0709 16.9198 12.0799C16.99 12.0889 17.0577 12.1117 17.119 12.1469C17.1804 12.182 17.2342 12.229 17.2774 12.2849C17.8619 13.0433 21.0073 13.1407 21.0073 11.6122C21.0073 10.6757 20.4604 10.5088 18.9222 10.5088C18.1149 10.5088 15.9712 10.5088 15.9712 8.32741C15.9712 7.21599 16.7397 6.24773 18.4884 6.08573ZM7.34566 1.07653C8.4515 1.07684 9.53761 1.36948 10.4939 1.92478C11.4502 2.48009 12.2427 3.27833 12.7911 4.23861C13.3395 5.19889 13.6243 6.28707 13.6167 7.39289C13.609 8.4987 13.3092 9.58284 12.7475 10.5354C12.1859 11.488 11.3824 12.2752 10.4185 12.8172C9.45461 13.3593 8.36456 13.6368 7.25882 13.6218C6.15309 13.6068 5.07096 13.2998 4.12212 12.7318C3.17328 12.1639 2.39143 11.3552 1.85583 10.3877C1.33043 9.43213 1.06275 8.35626 1.07912 7.26588C1.09549 6.17551 1.39534 5.10816 1.9492 4.16878C2.50305 3.2294 3.29184 2.45032 4.23801 1.90815C5.18418 1.36598 6.25517 1.07938 7.34566 1.07653ZM10.1562 22.9201C10.1115 22.8307 10.0428 22.7554 9.95769 22.7029C9.87261 22.6503 9.77455 22.6225 9.67453 22.6225H7.37096V16.4201C7.37096 16.2773 7.31425 16.1404 7.21332 16.0395C7.11238 15.9386 6.97548 15.8819 6.83274 15.8819H3.3833C3.24055 15.8819 3.10365 15.9386 3.00272 16.0395C2.90178 16.1404 2.84508 16.2773 2.84508 16.4201V22.6225H0.539348C0.439394 22.6225 0.341415 22.6503 0.256389 22.7029C0.171364 22.7554 0.102651 22.8306 0.0579501 22.92C0.0132494 23.0094 -0.00567276 23.1095 0.00330364 23.2091C0.01228 23.3086 0.0488003 23.4037 0.108773 23.4837L4.67717 29.5639C4.72733 29.6306 4.79228 29.6846 4.86691 29.7219C4.94154 29.7591 5.02381 29.7785 5.10721 29.7785C5.19062 29.7785 5.27288 29.7591 5.34751 29.7219C5.42214 29.6846 5.48709 29.6306 5.53725 29.5639L10.1051 23.4842C10.1652 23.4042 10.2018 23.3091 10.2109 23.2094C10.2199 23.1098 10.201 23.0096 10.1562 22.9201ZM18.384 26.213H16.0799V20.8222C16.0799 20.6794 16.0232 20.5425 15.9222 20.4416C15.8213 20.3406 15.6844 20.2839 15.5417 20.2839H12.0917C11.9489 20.2839 11.812 20.3406 11.7111 20.4416C11.6102 20.5425 11.5535 20.6794 11.5535 20.8222V26.213H9.24773C9.14782 26.2131 9.04991 26.241 8.96496 26.2936C8.88002 26.3461 8.81138 26.4213 8.76675 26.5107C8.72211 26.6001 8.70324 26.7001 8.71223 26.7997C8.72123 26.8992 8.75775 26.9942 8.81769 27.0741L13.385 33.1544C13.4351 33.2212 13.5002 33.2755 13.5749 33.3128C13.6496 33.3502 13.732 33.3697 13.8156 33.3697C13.8991 33.3697 13.9816 33.3502 14.0563 33.3128C14.131 33.2755 14.196 33.2212 14.2462 33.1544L18.8146 27.0741C18.8745 26.9942 18.9111 26.8991 18.92 26.7995C18.929 26.7 18.9101 26.5999 18.8654 26.5105C18.8207 26.4211 18.752 26.3459 18.667 26.2933C18.5819 26.2408 18.4839 26.213 18.384 26.213ZM28.4541 22.622H26.1505V21.0095C26.1505 20.8667 26.0938 20.7298 25.9928 20.6289C25.8919 20.5279 25.755 20.4712 25.6123 20.4712H22.1623C22.0195 20.4712 21.8826 20.5279 21.7817 20.6289C21.6808 20.7298 21.6241 20.8667 21.6241 21.0095V22.622H19.3183C19.2184 22.622 19.1204 22.6498 19.0354 22.7023C18.9504 22.7549 18.8816 22.8301 18.8369 22.9195C18.7922 23.0089 18.7733 23.109 18.7823 23.2085C18.7913 23.3081 18.8278 23.4032 18.8878 23.4831L23.4556 29.5634C23.5058 29.6302 23.5708 29.6845 23.6455 29.7218C23.7202 29.7592 23.8026 29.7787 23.8862 29.7787C23.9698 29.7787 24.0522 29.7592 24.1269 29.7218C24.2016 29.6845 24.2666 29.6302 24.3168 29.5634L28.8846 23.4837C28.9448 23.4037 28.9814 23.3086 28.9905 23.2089C28.9995 23.1093 28.9806 23.0091 28.9359 22.9196C28.8912 22.8301 28.8224 22.7549 28.7373 22.7023C28.6522 22.6497 28.5541 22.6219 28.4541 22.622Z" fill="url(#paint1_linear_304_3775)"/>
<defs>
<linearGradient id="paint0_linear_304_3775" x1="3.87207" y1="10.7436" x2="11.0438" y2="10.7436" gradientUnits="userSpaceOnUse">
<stop stop-color="#99FBFF"/>
<stop offset="0.484375" stop-color="#00DAE3"/>
<stop offset="1" stop-color="#99FBFF"/>
</linearGradient>
<linearGradient id="paint1_linear_304_3775" x1="0" y1="33.3697" x2="29" y2="33.3697" gradientUnits="userSpaceOnUse">
<stop stop-color="#99FBFF"/>
<stop offset="0.484375" stop-color="#00DAE3"/>
<stop offset="1" stop-color="#99FBFF"/>
</linearGradient>
</defs>
</svg>
